<?xml version="1.0" encoding="utf-8"?>
<!-- Generator: Adobe Illustrator 19.0.0, SVG Export Plug-In . SVG Version: 6.00 Build 0)  -->
<svg version="1.1" id="Layer_1" xmlns="http://www.w3.org/2000/svg" xmlns:xlink="http://www.w3.org/1999/xlink" x="0px" y="0px"
	 viewBox="0 0 1920 780" enable-background="new 0 0 1920 780" xml:space="preserve">
<rect id="XMLID_7_" fill="#0D2E4E" width="1920" height="696.5"/>
<g id="XMLID_8_">
	<linearGradient id="XMLID_19_" gradientUnits="userSpaceOnUse" x1="1055.3262" y1="525.982" x2="945.5952" y2="599.136">
		<stop  offset="0" style="stop-color:#5057A5;stop-opacity:2.000000e-002"/>
		<stop  offset="1" style="stop-color:#4D57A5;stop-opacity:0.64"/>
	</linearGradient>
	<ellipse id="XMLID_165_" opacity="0.5" fill="url(#XMLID_19_)" cx="1017.8" cy="551" rx="33.6" ry="4.7"/>
	<linearGradient id="XMLID_20_" gradientUnits="userSpaceOnUse" x1="1672.6382" y1="527.4797" x2="1562.9073" y2="600.6337">
		<stop  offset="0" style="stop-color:#5057A5;stop-opacity:2.000000e-002"/>
		<stop  offset="1" style="stop-color:#4D57A5;stop-opacity:0.64"/>
	</linearGradient>
	<ellipse id="XMLID_164_" opacity="0.5" fill="url(#XMLID_20_)" cx="1635.1" cy="552.5" rx="33.6" ry="4.7"/>
	<g id="XMLID_158_">
		<path id="XMLID_163_" fill="#5AB49A" d="M991.8,405.8c0,0-10.4,46,6.1,77.2c16.5,31.2,16.5,31.2,16.5,31.2
			S1018.7,436.1,991.8,405.8z"/>
		<path id="XMLID_162_" fill="#FFFFFF" d="M992.5,525.9c1,5.6,2.3,11.3,5.1,16.3c2.8,5,7.3,9.3,12.9,10.6c2.5,0.6,5.2,0.6,7.8,0.5
			c2.8-0.1,5.8-0.3,8.3-1.7c3.2-1.9,4.9-5.5,6.2-9c2.2-5.9,3.9-12,5-18.2c0.6-3.6,1.1-7.4-0.6-10.7c-2.3-4.4-7.6-6.1-12.4-6.9
			c-8.1-1.3-19.2-2-26.9,1.3C991,511.1,991.4,519.7,992.5,525.9z"/>
		<path id="XMLID_161_" fill="#535064" d="M1010.8,514.4c6.4,0.4,13.3-0.6,17.4-2.8c0.8-0.4,1.5-1,1.1-1.5c-0.4-0.6-2.2-0.9-3.6-1
			c-7.7-0.8-16.2-1.2-23.7,0.1C990.9,511.1,1004.9,514.1,1010.8,514.4z"/>
		<path id="XMLID_160_" fill="#62A48F" d="M1007.4,394.5c0,0-5.2,87.7,6.9,119.8C1014.3,514.3,1022.1,436.1,1007.4,394.5z"/>
		<path id="XMLID_159_" fill="#5AB49A" d="M1012.8,513.6h2.8c4.1-17.4,16.6-73.6,10-99.8c0,0-20.8,73.8-15.6,90.3
			C1011.3,508.4,1012.2,511.5,1012.8,513.6z"/>
	</g>
	<g id="XMLID_152_">
		<path id="XMLID_157_" fill="#5AB49A" d="M1610.6,408.8c0,0-10.4,46,6.1,77.2c16.5,31.2,16.5,31.2,16.5,31.2
			S1637.5,439.1,1610.6,408.8z"/>
		<path id="XMLID_156_" fill="#FFFFFF" d="M1611.3,528.9c1,5.6,2.3,11.3,5.1,16.3c2.8,5,7.3,9.3,12.9,10.6c2.5,0.6,5.2,0.6,7.8,0.5
			c2.8-0.1,5.8-0.3,8.3-1.7c3.2-1.9,4.9-5.5,6.2-9c2.2-5.9,3.9-12,5-18.2c0.6-3.6,1.1-7.4-0.6-10.7c-2.3-4.4-7.6-6.1-12.4-6.9
			c-8.1-1.3-19.2-2-26.9,1.3C1609.8,514.1,1610.2,522.7,1611.3,528.9z"/>
		<path id="XMLID_155_" fill="#535064" d="M1629.5,517.4c6.4,0.4,13.3-0.6,17.4-2.8c0.8-0.4,1.5-1,1.1-1.5c-0.5-0.6-2.2-0.9-3.6-1
			c-7.7-0.8-16.2-1.2-23.7,0.1C1609.6,514.1,1623.7,517.1,1629.5,517.4z"/>
		<path id="XMLID_154_" fill="#62A48F" d="M1626.2,397.5c0,0-5.2,87.7,6.9,119.8C1633.1,517.3,1640.9,439.1,1626.2,397.5z"/>
		<path id="XMLID_153_" fill="#5AB49A" d="M1631.6,516.6h2.8c4.1-17.4,16.6-73.6,10-99.8c0,0-20.8,73.8-15.6,90.3
			C1630.1,511.4,1631,514.5,1631.6,516.6z"/>
	</g>
	<linearGradient id="XMLID_21_" gradientUnits="userSpaceOnUse" x1="1154.9535" y1="509.1797" x2="907.738" y2="673.9902">
		<stop  offset="0" style="stop-color:#5057A5;stop-opacity:2.000000e-002"/>
		<stop  offset="1" style="stop-color:#4D57A5;stop-opacity:0.64"/>
	</linearGradient>
	<ellipse id="XMLID_151_" opacity="0.5" fill="url(#XMLID_21_)" cx="1070.4" cy="565.5" rx="75.7" ry="9.7"/>
	<linearGradient id="XMLID_65_" gradientUnits="userSpaceOnUse" x1="1658.373" y1="516.6711" x2="1411.1578" y2="681.4814">
		<stop  offset="0" style="stop-color:#5057A5;stop-opacity:2.000000e-002"/>
		<stop  offset="1" style="stop-color:#4D57A5;stop-opacity:0.64"/>
	</linearGradient>
	<ellipse id="XMLID_150_" opacity="0.5" fill="url(#XMLID_65_)" cx="1573.8" cy="573" rx="75.7" ry="9.7"/>
	<linearGradient id="XMLID_66_" gradientUnits="userSpaceOnUse" x1="1328.7535" y1="506.9308" x2="1081.5383" y2="671.7412">
		<stop  offset="0" style="stop-color:#5057A5;stop-opacity:2.000000e-002"/>
		<stop  offset="1" style="stop-color:#4D57A5;stop-opacity:0.64"/>
	</linearGradient>
	<ellipse id="XMLID_149_" opacity="0.5" fill="url(#XMLID_66_)" cx="1244.2" cy="563.3" rx="75.7" ry="9.7"/>
	<linearGradient id="XMLID_67_" gradientUnits="userSpaceOnUse" x1="1528.0226" y1="503.935" x2="1280.8097" y2="668.7438">
		<stop  offset="0" style="stop-color:#5057A5;stop-opacity:2.000000e-002"/>
		<stop  offset="1" style="stop-color:#4D57A5;stop-opacity:0.64"/>
	</linearGradient>
	<ellipse id="XMLID_148_" opacity="0.5" fill="url(#XMLID_67_)" cx="1443.5" cy="560.3" rx="75.7" ry="9.7"/>
	<linearGradient id="XMLID_68_" gradientUnits="userSpaceOnUse" x1="1375.1083" y1="510.1075" x2="1226.4563" y2="609.2089">
		<stop  offset="0" style="stop-color:#5057A5;stop-opacity:2.000000e-002"/>
		<stop  offset="1" style="stop-color:#4D57A5;stop-opacity:0.64"/>
	</linearGradient>
	<ellipse id="XMLID_147_" opacity="0.5" fill="url(#XMLID_68_)" cx="1324.3" cy="544" rx="45.2" ry="9.7"/>
	<path id="XMLID_146_" fill="#DFE3EC" d="M1083.9,304.6l28.5,4.6l-13.6-12.4l6.5-7.2l24.7,22.1c3.4,3.6,1,9.5-4,9.6l-34.6,1.1
		L1083.9,304.6z"/>
	<polygon id="XMLID_145_" fill="#378DA7" points="1095.8,377.8 1095.3,564.1 1085.5,564.8 1078.7,406.7 1069.6,407.4 1060.3,563.4 
		1050.5,562.7 1051.7,374.4 	"/>
	<path id="XMLID_143_" fill="#DFE3EC" d="M1083.9,304.6l-33-1.4c-3.4-0.1-6.7,1.3-8.9,3.9l9.6,75.5l45.1,0.9l-4.1-69.2
		C1092.6,314.3,1085.1,304.7,1083.9,304.6z"/>
	<path id="XMLID_142_" fill="#FFFFFF" d="M1098.8,290.2c-1.8,1.4-4.1,2.8-4.5,5.1c-0.3,2,1.1,3.9,3,4.7c1.9,0.7,4,0.4,5.8-0.4
		c2.9-1.3,5.4-4,5.9-7.2c0.4-2.3-0.6-6.8-3.3-7.6C1102.6,283.7,1101,288.4,1098.8,290.2z"/>
	<polygon id="XMLID_141_" fill="#1F4F6E" points="1050.5,562.7 1031.4,568.4 1032.1,570.1 1059.8,567 1060.3,563.4 	"/>
	<path id="XMLID_140_" fill="#EDBCC4" d="M988.8,305.2l-3-5.1l3.3-7c0,0,1.8-4.8,1.8-6.4c0-1.5-1.5-3.6-3-0.9c-1.5,2.7-3,4.8-3,4.8
		l-9-13.3c-0.3-0.4-0.7-0.6-1.1-0.6l0,0c-1,0-1.7,1.1-1.2,2l2.1,3.8c0.7,1.3-0.8,2.6-2,1.8l-0.4-0.3c-2.3-1.6-5.3-1-6.9,1.2
		l-0.2,0.2l0.2,4.5c0.1,2.9,1.4,5.6,3.7,7.5c5.3,4.3,14.7,12,14.9,11.3C985.2,307.9,988.8,305.2,988.8,305.2z"/>
	<path id="XMLID_139_" fill="#EDBCC4" d="M1091.1,275.5c-1.2-0.6-2.9,0-3.6,1.1c-0.8,1.1-0.8,2.7-0.3,4c0.9,2.4,3.5,4.2,6.1,3.8
		c2.5-0.4,4.6-3,4.2-5.5c-0.3-1.8-1.7-3.4-3.4-4.1c-1.7-0.7-3.7-0.5-5.4,0.2"/>
	<path id="XMLID_138_" fill="#EDBCC4" d="M1090.4,278.4l14.8,11.7c0,0,0.4,6.4-3.2,7.1c-1.1,0.7-14.8-13.8-14.8-13.8L1090.4,278.4z"
		/>
	<path id="XMLID_137_" fill="#1F4F6E" d="M1085.5,564.8l0.5,3.1l24,4c0,0,1.2-1.9,0.5-2.1c-0.7-0.2-15.2-5.7-15.2-5.7L1085.5,564.8z
		"/>
	<path id="XMLID_136_" fill="#EDBCC4" d="M1062,288.7l0.8,20.5c0,2.4,1.7,4.4,4.1,4.8l0,0c2.7,0.4,5.2-1.4,5.6-4.1l1-17.8
		L1062,288.7z"/>
	<g id="XMLID_133_">
		
			<rect id="XMLID_135_" x="1079.9" y="270.4" transform="matrix(0.9831 0.1829 -0.1829 0.9831 69.8051 -193.721)" fill="#535064" width="10.6" height="22.3"/>
		
			<rect id="XMLID_134_" x="1079.9" y="270.3" transform="matrix(0.9831 0.1828 -0.1828 0.9831 69.7524 -193.5677)" fill="#535064" width="9.4" height="22.3"/>
	</g>
	<path id="XMLID_132_" fill="#FFFFFF" d="M1060.8,306.2c0,0-1.5,1.3-1.6,1.7c-0.1,0.4,5.8,9.7,5.8,9.7l4-6.3l4.9,6.3l2-11.5
		l-3.3-0.8l-3.8,4.3l-6.7-5.4L1060.8,306.2z"/>
	<polygon id="XMLID_131_" fill="#908FC6" points="1069,311.2 1066.5,315.3 1068.2,318.4 1067.3,320.8 1068.2,351.1 1071.7,354.9 
		1074.8,351.3 1071.6,320.7 1069.7,318.2 1072,315.1 	"/>
	<path id="XMLID_130_" fill="#EDBCC4" d="M1053.5,266.7c-2.1,4.8-1.9,10.3-0.8,15.5c1.2,5.6,3.5,11.2,7.9,14.8
		c4.4,3.6,11.3,4.6,15.8,1.2c2.7-2,4.2-5.3,5.3-8.5c2.1-6.4,2.5-13.6-0.2-19.8C1076.6,258.4,1059.3,253.2,1053.5,266.7z"/>
	<polygon id="XMLID_129_" fill="#DFE3EC" points="1046.1,328.8 1010.7,340.3 985,312.2 991.4,306.9 1015.1,326.4 1042.1,307.1 
		1046.6,315.2 	"/>
	<polygon id="XMLID_128_" fill="#FFFFFF" points="980.9,310.3 983.6,314.6 995.7,307.6 990.9,302.8 	"/>
	<path id="XMLID_127_" fill="#EDBCC4" d="M1047.4,275.8c-1.5,0.7-2.3,2.5-2.1,4.2c0.2,1.7,1.1,3.2,2.1,4.5c0.6,0.7,1.2,1.4,2,1.9
		c0.8,0.5,1.7,0.7,2.5,0.8c1.1,0.1,2.4,0,3-0.9c0.3-0.5,0.4-1.1,0.5-1.7c0.3-2.7-0.4-3.8-2-5.8
		C1052,277.1,1050.1,274.6,1047.4,275.8z"/>
	<path id="XMLID_126_" fill="#535064" d="M1057.5,276c-0.2,2.9-1.6,5.8-4.1,7.2c-1.9-2.4-2.9-5.4-3.2-8.4c-0.4-3.7,0.2-7.7,2.4-10.8
		c2.5-3.5,6.8-5.4,11.1-5.7c4.3-0.3,8.5,0.8,12.5,2.4c1.7,0.7,3.9,1.4,5.2,0.1c0.7,1.3,1.1,2.7,1.1,4.2c0,1.1-0.2,2.3-0.8,3.2
		c-1,1.6-2.7,3.3-4.6,3.7c-14,3.1-20.5-4.5-20.5-4.2c-0.2,0.7,0.2,1.7,0.4,2.4C1057.4,272.1,1057.7,274,1057.5,276z"/>
	<path id="XMLID_125_" fill="#EBD08B" d="M1262.9,432.6l-4-77.3c0,0-19.9-1.2-25.8-1.2c-3.2,0-8.7,1.5-13.1,2.9
		c-4.1,1.3-7.5,1.2-9.5,5l-32.6,62.4l20,1.9l6.7-7.6l-3.4-5.1l12.2-28.7l-0.2,48.6L1262.9,432.6z"/>
	<linearGradient id="XMLID_167_" gradientUnits="userSpaceOnUse" x1="1191.5079" y1="397.1129" x2="1213.5349" y2="397.1129">
		<stop  offset="0" style="stop-color:#EBD08B;stop-opacity:0"/>
		<stop  offset="1" style="stop-color:#535064;stop-opacity:0.7"/>
	</linearGradient>
	<path id="XMLID_124_" opacity="0.5" fill="url(#XMLID_167_)" d="M1213.1,373.6l-21.6,39l6.7,7.9c0,0,2.7,0.5,5.3-0.3l1.2-1.4
		l-3.4-5.1l12.2-28.7L1213.1,373.6z"/>
	<path id="XMLID_123_" fill="#91626B" d="M1230.3,417c-0.8-0.3-7.5-4.2-12.5-4.2c-5,0-11.1,5.3-11.1,5.3s-0.8,2.8,2.5,2.2
		c3.3-0.6,5.6-0.8,5.6-0.8s-5.9,3.1-1.9,3.6c3.9,0.6,20.3,0,20.3,0L1230.3,417z"/>
	<path id="XMLID_122_" fill="#5D63AC" d="M1229.1,428.3h-64.4v-4.7h64.4c1.3,0,2.4,1.1,2.4,2.4l0,0
		C1231.5,427.3,1230.4,428.3,1229.1,428.3z"/>
	<path id="XMLID_121_" fill="#8082BE" d="M1211.4,428.3h-62.1c-2.7,0-5.1-1.8-5.9-4.5l-11-41.3c-1-3.8,1.9-7.6,5.9-7.6h54.2
		c2.7,0,5.1,1.8,5.9,4.5L1211.4,428.3z"/>
	<linearGradient id="XMLID_168_" gradientUnits="userSpaceOnUse" x1="1132.3499" y1="400.973" x2="1183.2852" y2="400.973">
		<stop  offset="0" style="stop-color:#4F56A4;stop-opacity:0"/>
		<stop  offset="1" style="stop-color:#4D57A5;stop-opacity:0.5018"/>
	</linearGradient>
	<path id="XMLID_120_" fill="url(#XMLID_168_)" d="M1138.4,375c-4,0-6.9,3.8-5.9,7.6l11,41.3c0.3,1.3,1.1,2.4,2,3.1l37.7-52H1138.4z
		"/>
	<path id="XMLID_119_" fill="#FFFFFF" d="M1174.9,405.3c0.7,2.7-1,4.9-3.8,4.9c-2.8,0-5.6-2.2-6.2-4.9c-0.7-2.7,1-4.9,3.8-4.9
		C1171.4,400.4,1174.2,402.6,1174.9,405.3z"/>
	<path id="XMLID_118_" fill="#91626B" d="M1231.2,344.6c0.6,1.1,4.5,16.4,4.5,16.4s1.4,2.5,4.7,2.2c3.3-0.3,4.7-5,4.7-5l-5.9-19.2
		L1231.2,344.6z"/>
	<path id="XMLID_117_" fill="#91626B" d="M1251.8,335.1c0,10.6-11.2,22.2-21.8,22.2c-10.6,0-16.5-11.7-16.5-22.2
		c0-10.6,8.6-19.1,19.1-19.1C1243.2,316,1251.8,324.6,1251.8,335.1z"/>
	<path id="XMLID_116_" fill="#FFFFFF" d="M1234.2,356.3l-2.2,5.9l1.4,6.1l4.5-6.4l4.5,7.2l5-8.9l-3.3-5.9c0,0-1.7,3.9-5.3,4.7
		C1235.1,359.9,1234.2,356.3,1234.2,356.3z"/>
	<polygon id="XMLID_115_" fill="#8082BE" points="1237.8,361.8 1234.5,366 1236.2,368.5 1233.7,373.8 1234.2,408.7 1237.6,415.6 
		1242.3,407.8 1241.2,374.7 1238.7,368.3 1240.6,365.5 	"/>
	<linearGradient id="XMLID_169_" gradientUnits="userSpaceOnUse" x1="1203.2893" y1="425.2162" x2="1311.8633" y2="382.2705">
		<stop  offset="0" style="stop-color:#EBD08B;stop-opacity:0"/>
		<stop  offset="1" style="stop-color:#535064;stop-opacity:0.7"/>
	</linearGradient>
	<polygon id="XMLID_114_" fill="url(#XMLID_169_)" points="1261.3,371.5 1262.5,432.6 1233.8,432.3 	"/>
	<path id="XMLID_113_" fill="#EBD08B" d="M1258.9,355.4l2.7,57.6l-26.6,5.4l3.6,7l38.1,2.2l-5.2-56.9c-0.5-5.9-4.1-11-9.4-13.6
		L1258.9,355.4z"/>
	<polygon id="XMLID_112_" fill="#FFFFFF" points="1230.3,417 1235.6,417.6 1240.4,425.4 1231.5,426 	"/>
	<path id="XMLID_111_" fill="#378DA7" d="M1203.8,443.1l-47.1,12l24,94.2l8.3-4.1l-7-81l42.1-13.2l-24.4,14l0.4,76.8h7.4
		c0,0,20.7-75.2,22.7-75.2c2.1,0,36.8-23.1,36.8-23.1L1203.8,443.1z"/>
	<polygon id="XMLID_110_" fill="#378DA7" points="1155.3,556.7 1188.1,554.3 1189,544 1154,552 	"/>
	<polygon id="XMLID_109_" fill="#378DA7" points="1181.9,562.5 1188.5,563.3 1207.1,556.3 1207.5,541.8 1200.1,541.8 1196.8,550.9 
		1186.8,556.9 	"/>
	<path id="XMLID_108_" fill="#4A454A" d="M1212.9,328.3c-0.7,1.4-1.5,3-1,4.4c0.7,1.8,2.9,2.3,4.8,2.6c3.3,0.4,6.6,0.6,9.9,0.5
		c2.2,0,4.4-0.2,6.5-0.7c3.5-0.8,6.7-2.6,9.8-4.4c2.2-1.3,4.7-2.8,5.1-5.4c0.4-2.5-1.4-4.8-3.1-6.6c-1-1.1-1.9-2.1-3.1-3
		c-2.8-2.1-6.6-2.6-10-2.1C1223.1,315.2,1216.9,321,1212.9,328.3z"/>
	<path id="XMLID_107_" fill="#4A454A" d="M1244.2,334.5c0.3-1,1.6-1.5,2.6-1.2c1,0.3,1.7,1.3,1.8,2.4c0.2,1-0.1,2.1-0.6,3
		c-0.2,0.5-0.5,0.9-0.6,1.4c-0.1,0.4-0.1,0.9-0.1,1.3c0,1.9,0.1,3.7,0.1,5.6c1.5-0.6,2.4-2.2,3.2-3.6c1.7-3.2,3.5-6.6,3.3-10.2
		c-0.2-3-1.7-5.7-3.2-8.3c-0.3-0.6-0.7-1.1-1.2-1.5c-0.8-0.5-1.8-0.6-2.6-0.3c-0.9,0.3-1.6,0.8-2.4,1.3c-0.7,0.5-1.5,1-2.2,1.5
		c-0.7,0.5-1.5,1-1.9,1.8c-0.7,1.4,0.3,2,1.1,2.9C1241.9,331,1241.1,340.3,1244.2,334.5z"/>
	<g id="XMLID_103_">
		<path id="XMLID_104_" fill="#EEF1F6" d="M1216.1,350.5c-2.5,0-5.3-2.1-6.3-4.8c-0.5-1.4-0.4-2.8,0.3-3.7c0.6-0.8,1.6-1.3,2.8-1.3
			c2.5,0,5.3,2.1,6.3,4.8c0.5,1.4,0.4,2.8-0.3,3.7C1218.2,350,1217.3,350.5,1216.1,350.5z M1212.8,341.4c-0.9,0-1.7,0.4-2.2,1
			c-0.5,0.8-0.6,1.9-0.2,3c0.8,2.4,3.3,4.3,5.6,4.3c0.9,0,1.7-0.4,2.2-1c0.5-0.8,0.6-1.9,0.2-3
			C1217.6,343.4,1215.1,341.4,1212.8,341.4z"/>
	</g>
	<g id="XMLID_99_">
		<path id="XMLID_100_" fill="#EEF1F6" d="M1228.7,350.5c-2.5,0-5.3-2.1-6.3-4.8c-0.5-1.4-0.4-2.8,0.3-3.7c0.6-0.8,1.6-1.3,2.8-1.3
			c2.5,0,5.3,2.1,6.3,4.8c0.5,1.4,0.4,2.8-0.3,3.7C1230.9,350,1229.9,350.5,1228.7,350.5z M1225.5,341.4c-0.9,0-1.7,0.4-2.2,1
			c-0.5,0.8-0.6,1.9-0.2,3c0.8,2.4,3.3,4.3,5.6,4.3c0.9,0,1.7-0.4,2.2-1c0.5-0.8,0.6-1.9,0.2-3
			C1230.3,343.4,1227.7,341.4,1225.5,341.4z"/>
	</g>
	<g id="XMLID_86_">
		<path id="XMLID_98_" fill="#535064" d="M1298.6,305.3c0.2,3,1.8,6,1,8.9c-0.7,2.4-2.9,4.1-3.6,6.4c-0.8,2.7,0.6,5.5,1.9,7.9
			c1.1,2.1,2.7,4.4,5,4.4c1,0,2-0.5,2.9-0.9c2.2-1.1,4.5-2.2,6.7-3.4c1-0.5,1.9-1,2.7-1.7c1.2-1.1,1.8-2.7,2.3-4.2
			c1.7-4.7,3.2-9.7,2.9-14.7c-0.4-5-3.1-10.1-7.8-12c-2.6-1-10.2-2-12.5,0.3c-1,1-0.5,2.1-0.6,3.3
			C1299.3,301.6,1298.5,303.3,1298.6,305.3z"/>
		<path id="XMLID_97_" fill="#EDBCC4" d="M1304,320.3l-2.3,0.6c-9.5,6.2-15,14.7-16.2,25.9l-4.8,78.1l7.3-3.2L1304,320.3z"/>
		<path id="XMLID_96_" fill="#8082BE" d="M1351.8,319.7l-38.6-1.6c-3.3-0.1-9,1-12.1,2l-4.9,2.3l8.7,41.4h0
			c-7.9,13.4-11.8,28.7-11.4,44.2l4.6,56.4h43.3l5.5-59.5c0.5-12.2-1.8-24.3-6.6-35.5l-2.4-5.5L1351.8,319.7z"/>
		<linearGradient id="XMLID_173_" gradientUnits="userSpaceOnUse" x1="1310.9578" y1="356.464" x2="1331.3009" y2="302.653">
			<stop  offset="0" style="stop-color:#4F56A4;stop-opacity:0"/>
			<stop  offset="1" style="stop-color:#4D57A5;stop-opacity:0.5018"/>
		</linearGradient>
		<path id="XMLID_95_" fill="url(#XMLID_173_)" d="M1305.4,336.3c1,2,2.5,3.8,4.4,4.9c2.6,1.5,5.8,1.7,8.7,1.1
			c2.9-0.6,5.6-2,8.2-3.5c4.7-2.7,9.1-6,12.5-10.2c2.4-3,4.2-7.2,2.3-10.4c-1.2-2.1-3.7-3.1-6-3.8
			C1323,311.1,1295.8,318.2,1305.4,336.3z"/>
		<path id="XMLID_94_" fill="#EDBCC4" d="M1335.2,299.5c0,10.3-10.9,24.2-21.2,24.2c-10.3,0-16-13.9-16-24.2
			c0-10.3,8.3-18.6,18.6-18.6C1326.9,280.9,1335.2,289.3,1335.2,299.5z"/>
		<path id="XMLID_93_" fill="#EDBCC4" d="M1351.8,319.7l26.8,34.9c2.8,3.7,1.8,8.9-2.1,11.4l-31.3,19.2l-3.9-6l21.5-17.2
			c1.6-1.3,1.9-3.5,0.8-5.1l-16.3-23.1L1351.8,319.7z"/>
		<path id="XMLID_92_" fill="#EDBCC4" d="M1265.9,428.4h16.8c2.7,0,4.9-2.1,5.1-4.8l0.1-1.9L1265.9,428.4z"/>
		<path id="XMLID_91_" fill="#EDBCC4" d="M1311.6,312c-0.2-0.6,4.4,12.3,4.4,12.3s1.1,5.3,5.5,4c4.4-1.3,1.7-20.1,1.1-20.3
			C1322,307.8,1312,313.1,1311.6,312z"/>
		<path id="XMLID_90_" fill="#535064" d="M1322.6,297.1c-8.6,5.2-17.7,10.6-27.7,11.2c2.3-2.8,1.8-6.8,2.2-10.4
			c0.7-5.9,4.1-11.3,9.1-14.5c5-3.1,11.4-3.8,17-1.9c2.1,0.7,4.1,1.9,5.4,3.7C1332.4,290.4,1326.6,294.6,1322.6,297.1z"/>
		<path id="XMLID_89_" fill="#535064" d="M1321.9,317.7c0.6,2.8,2.3,5.2,2.6,8c0.2,1.8-0.2,3.6-0.6,5.4c-0.5,2.2-1,4.3-1.5,6.5
			c3-0.6,5.7-2.2,8.1-4.1c8.6-6.9,13.1-18.6,11.2-29.4c-0.5-3.1-1.5-6.1-2.7-9c-0.9-2.3-1.8-4.6-3.3-6.4c-1.5-1.9-3.7-3.3-6.2-3.4
			c-2.9-0.1-5.5,1.8-7.2,4.2c-1.2,1.6-2,3.5-2,5.5s0.7,8.7,2.5,9.5c2.3-1.4,5.7-0.2,6.6,2.4c1.4,4-2.2,4.7-4.6,6.1
			C1321.9,314.6,1321.2,314.6,1321.9,317.7z"/>
		<path id="XMLID_88_" fill="#535064" d="M1341.6,305.6c1.8,1.4,3.9,2.4,5.5,4c1.6,1.6,2.7,4.1,1.8,6.2c-0.5,1.3-1.7,2.3-2.7,3.3
			c-1,1-2,2.3-1.8,3.8c0.1,0.9,0.7,1.8,1.2,2.6c1.4,2.1,2.6,4.5,2.1,6.9c-0.3,2-1.7,3.7-3.5,4.7c-1.8,1-3.8,1.2-5.8,0.9
			c-1.2-0.2-2.3-0.5-3.4-0.5c-3.1,0.1-5.5,2.9-8.5,3.3c-1.7,0.2-3.5-0.5-4.7-1.7c-1.2-1.3-1.8-3.1-1.5-4.8c0.5-2.8,2.9-4.8,5.2-6.5
			c2.3-1.7,4.7-3.8,5-6.6c0.2-2.1-0.7-4.2-0.5-6.3c0.4-3,3.2-5.2,3.9-8.2c0.4-1.7-0.2-5.9,2.4-5.9
			C1338.3,300.8,1340.1,304.5,1341.6,305.6z"/>
		<path id="XMLID_87_" fill="#535064" d="M1319.4,302.2c-0.5,1-1.2,2-1.9,2.9c-1,1.3-2,2.6-2.9,3.9c0.7-2.5,0.9-5.2,0.7-7.7
			c0-0.4-0.1-0.8,0-1.2c0.2-0.7,0.8-1.2,1.5-1.7c0.9-0.6,3.2-2.5,4.1-1.3C1321.5,298.1,1319.9,301.3,1319.4,302.2z"/>
	</g>
	<g id="XMLID_59_">
		<polygon id="XMLID_85_" fill="#535064" points="1342.1,373.4 1340.3,375 1346.4,382.1 		"/>
		<path id="XMLID_84_" fill="#D88D9C" d="M1472.7,432.6l-4-77.3c0,0-19.9-4.2-25.8-4.2c-3.2,0-8.7,1.5-13.1,2.9
			c-4.1,1.3-7.5,4.2-9.5,8l-32.6,62.4l20,1.9l6.7-7.6l-3.4-5.1l12.2-28.7l-0.2,48.6L1472.7,432.6z"/>
		<path id="XMLID_83_" fill="#EDBCC4" d="M1470,333c0,10.6-8.6,19.1-19.1,19.1c-5.8,0-9.9-6.1-13.4-10.2c-2.8-3.3-5.1-4.3-5.1-9
			c0-10.6,7.9-19,18.5-19C1461.5,313.9,1470,322.4,1470,333z"/>
		<polygon id="XMLID_82_" fill="#535064" points="1421.2,428.3 1354.5,428.3 1340.3,375 1407,375 		"/>
		<polygon id="XMLID_81_" fill="#FFFFFF" points="1421.2,428.3 1356.5,428.3 1342.1,373.4 1407.5,375 		"/>
		<rect id="XMLID_80_" x="1355" y="424.5" fill="#535064" width="45.8" height="3.9"/>
		<linearGradient id="XMLID_174_" gradientUnits="userSpaceOnUse" x1="1423.0955" y1="399.7586" x2="1471.3573" y2="399.7586">
			<stop  offset="0" style="stop-color:#B6587B;stop-opacity:0"/>
			<stop  offset="1" style="stop-color:#C45771"/>
		</linearGradient>
		<path id="XMLID_79_" fill="url(#XMLID_174_)" d="M1445.8,419.4l25.6-12.2l-2.1-41.2l-4.4,0.3l-33.1,34.8c0,0-4.9,12.9-8.5,23.1
			l0,9.5l34.4-0.7L1445.8,419.4z"/>
		<polygon id="XMLID_78_" fill="#8082BE" points="1403.4,416 1367.8,416 1359.8,385.7 1395.9,386.6 		"/>
		<path id="XMLID_77_" fill="#908FC6" d="M1413.6,443.1l-47.1,12l24,94.2l8.3-4.1l-7-81l42.1-13.2l-24.4,14l0.4,76.8h7.4
			c0,0,20.7-75.2,22.7-75.2c2.1,0,36.8-23.1,36.8-23.1L1413.6,443.1z"/>
		<polygon id="XMLID_76_" fill="#535064" points="1365.1,556.7 1397.8,554.3 1398.7,544 1363.7,552 		"/>
		<path id="XMLID_75_" fill="#EEF1F6" d="M1438.9,359.2c0.3,3.7,1,7.4,2.1,10.9c0.2,0.8,0.5,1.6,1.2,2.1c1.3,1,3.2,0.2,4.6-0.8
			c2.4-1.7,4.6-3.6,6.5-5.9c1.2-1.5,2.3-3.1,2.6-4.9c0.4-1.8-0.1-3.9-1.5-5.2c-2.2-1.9-6.9-1.8-9.7-1.9
			C1440.7,353.5,1438.5,355.1,1438.9,359.2z"/>
		<polygon id="XMLID_74_" fill="#535064" points="1391.7,562.5 1398.3,563.3 1416.9,556.3 1417.3,541.8 1409.8,541.8 1406.5,550.9 
			1396.5,556.9 		"/>
		<path id="XMLID_73_" fill="#EDBCC4" d="M1443.7,342.6l-1.4,16.1c0,0,1.1,6.8,5.1,5.7c4-1.1,4.5-4.2,4.5-4.2l1.7-19.2L1443.7,342.6
			z"/>
		<path id="XMLID_72_" fill="#4A454A" d="M1458,326.8c3-0.1,6.1-0.3,8.8-1.6c2.7-1.3,5-4,4.9-7c0-3-3.2-5.8-6-4.9
			c-0.7,0.2-1.2,0.6-1.9,0.7c-1,0.2-2.1-0.1-3.1-0.4c-7.7-2.3-16.4-3.8-23.6-0.2c-1.3,0.7-2.7,1.6-3.4,2.9c-0.5,1-0.7,2.2-0.8,3.4
			c-0.3,3.1-0.5,6.3-0.6,9.4c2.1-1.1,4.2-2.5,6.3-3.4c2.1-0.9,3.5,0,5.7,0.5C1448.9,327,1453.5,327,1458,326.8z"/>
		<path id="XMLID_71_" opacity="0.7" fill="#4A454A" d="M1440.1,321.7c-2-0.4-4,0.3-5.6,1.6c-1.4,2.4-2.4,5.2-2.6,8.1
			c0.2,1,0.4,2.1,0.4,3.1c0,0.6,0.2,1.6,0.6,2.7c1.1,1.7,2.9,2.8,4.6,4.8c0.1,0.1,0.1,0.2,0.2,0.3c1.9-3.2,4.9-10.5,5.4-11.2
			c0.9-1.1,3.6-4.5,3.1-6C1445.8,323.5,1441.4,321.9,1440.1,321.7z"/>
		<path id="XMLID_70_" fill="#EDBCC4" d="M1440.1,329.5c-0.1-0.2-0.3-0.4-0.5-0.6c-0.3-0.2-0.6-0.2-0.9-0.2c-1.3,0-2.7,0.1-3.5,1.1
			c-0.3,0.4-0.5,1-0.6,1.5c-0.2,1.2-0.3,2.5-0.2,3.8c0.2,1.9,1.1,4.1,3,4.6c1.1,0.3,2.3-0.2,3.2-1
			C1443.6,336,1442,332.4,1440.1,329.5z"/>
		<path id="XMLID_69_" fill="#4A454A" d="M1464.2,339.5c1-0.2,2-0.4,3-0.2c1,0.2,1.9,1,2,2c0,0.5-0.1,1-0.2,1.5
			c-0.3,1.5,0.4,3,0.9,4.4c1.1,3.1,1.9,6.9,0,9.6c-1.8,2.6-5.3,3.3-8.4,3.1c-9.3-0.4-18-7.1-20.8-15.9c-1-3.1-1.3-6.5-0.3-9.6
			c0.3-0.9,1.1-2,2-1.7c0.5,3.6,2.9,6.9,6.1,8.5C1454.1,344.2,1458.8,340.8,1464.2,339.5z"/>
		<g id="XMLID_64_">
			<path id="XMLID_170_" fill="#535064" d="M1343.4,374.4l63.3,1.5l13.2,51.4h-62.6L1343.4,374.4 M1342.1,373.4l14.5,55h64.6
				l-13.7-53.4L1342.1,373.4L1342.1,373.4z"/>
		</g>
		<path id="XMLID_63_" fill="#FFFFFF" d="M1446.8,428.3H1355v-3.9h91.8c1.1,0,1.9,0.9,1.9,1.9l0,0
			C1448.7,427.5,1447.8,428.3,1446.8,428.3z"/>
		<path id="XMLID_62_" fill="#5D63AC" d="M1400.3,428.3H1355v-3.9h45.3c1.1,0,1.9,0.9,1.9,1.9l0,0
			C1402.3,427.5,1401.4,428.3,1400.3,428.3z"/>
		<path id="XMLID_61_" fill="#D88D9C" d="M1468.7,355.4l-16.7,44.1l-42.6,5.7l1.7,8.5l54.5-1.8l14.7-38.8c0.7-1.9,0.9-4,0.3-6
			c-1.4-4.4-4.5-8.1-8.7-10.2L1468.7,355.4z"/>
		<path id="XMLID_60_" fill="#EDBCC4" d="M1409.4,405.2l-23-12.3c0,0-1.2,1.8,0.6,3.3c1.8,1.5,7.6,5.8,7.6,5.8v3.3
			c1.9,6.3,7.8,9.2,14.4,8.5l2.1-0.2L1409.4,405.2z"/>
	</g>
	<path id="XMLID_58_" fill="#764650" d="M1503,428.3h-27.4c0,0-0.8-2,3.6-2.8c4.4-0.8,16.7-1.2,16.7-1.2l3.2-3.6l4.4,1.2L1503,428.3
		z"/>
	<path id="XMLID_57_" fill="#8081BE" d="M1525.5,344.5l-29.2,78.8l7.2,1.8l44.9-76.8c0,0-1.3-5-8.9-9.7
		C1531.8,333.8,1525.5,344.5,1525.5,344.5z"/>
	<path id="XMLID_56_" fill="#91626B" d="M1526.3,308.3c-5.7-8.9-17.5-11.5-26.4-5.8c-5,3.2-8.2,8.9-8.8,14.7c-0.3,3-0.3,4,0.9,6.7
		c1.2,2.8,4.6,6.6,2.6,12.1c-0.4,1.3-0.1,3.3,1.4,3.9c1.5,0.6,2.8-1,4.3-1.1c2.8-0.1,8.2,4.1,10.1,5.8c0.8,0.7,1.8,1.5,2.9,1.6
		c0.9,0.1,1.9-0.2,2.7-0.7c4.2-2.2,6.8-6.5,8.9-10.8c2-4,3.7-8.2,4-12.6C1529.8,317.6,1529,312.6,1526.3,308.3z"/>
	<path id="XMLID_55_" fill="#91626B" d="M1525.6,345.3c0.8,0.8,1.8,1.7,3,1.5c0.5-0.1,1-0.4,1.4-0.7c1.2-0.8,2.3-1.7,3.2-2.8
		c0.6-0.6,1.2-1.4,1.2-2.2c0-0.5-0.2-1-0.4-1.4c-1.9-4.4-5.9-7.7-7.3-12.2c-0.6-2.1-0.7-4.3-1.4-6.3c-0.7-2-2.4-4-4.5-4.1
		c-1.3-0.1-2.5,0.6-3.5,1.3c-3.3,2.5-5.3,6.7-4.9,10.9c0.3,3.8,2.5,7.2,5.6,9.3C1520.9,340.7,1523,342.7,1525.6,345.3z"/>
	<path id="XMLID_54_" fill="#4A454A" d="M1499.9,302.5c-3.5,2.3-6.2,5.8-7.6,9.8c3.7,1.8,13-2.2,15.6-3.7
		c-0.3,6.4,3.2,12.9,8.7,16.2c3.4,2,7.3,2.9,10.7,4.8c0.9-2.4,1.5-4.8,1.7-7.3c0.9-4.6,0.1-9.6-2.7-13.9
		C1520.6,299.4,1508.8,296.8,1499.9,302.5z"/>
	<path id="XMLID_53_" fill="#91626B" d="M1510.1,321.9c-1.1-2,0-4.7,2-5.7c2-1,4.6-0.4,6.2,1.2c1.6,1.6,2.3,4,2.1,6.2
		c-0.2,2.8-2.3,5.9-5.1,5.8c-1.6-0.1-3-1.1-3.8-2.4c-0.9-1.3-1.3-2.8-1.8-4.3"/>
	<polygon id="XMLID_52_" fill="#FFFFFF" points="1536.1,335.4 1530.6,329.1 1522,344.9 1525.2,354.9 1536.6,342.1 	"/>
	<path id="XMLID_51_" fill="#908FC6" d="M1542.3,336.3l51.1,56.9l-31.3,27.5l-38.4-58.9c-3.9-5.6,2.1-18.1,6-23.7l0,0
		C1532.6,333.9,1538.4,333.1,1542.3,336.3z"/>
	<polygon id="XMLID_50_" fill="#84CBDD" points="1591.7,567.8 1577.9,490.3 1562.1,420.7 1593.4,393.2 1591.6,489.4 1599.3,564 	"/>
	<polygon id="XMLID_49_" fill="#D0E3F5" points="1593.4,393.2 1567.6,570.3 1559.8,569 1562.1,420.7 	"/>
	<polygon id="XMLID_48_" fill="#D0E3F5" points="1545.5,575.9 1566.1,575.1 1567.3,568.7 1561.4,567.9 1541.5,573.5 1541.9,576.3 	
		"/>
	<polygon id="XMLID_47_" fill="#378DA7" points="1599.3,564 1599.9,570 1576,571.4 1575.8,569.5 1596.9,562.8 	"/>
	<path id="XMLID_46_" fill="#91626B" d="M1492.8,428.3h-27.4c0,0-0.8-2,3.6-2.8c4.4-0.8,17.6-1.1,17.6-1.1l2.2-3.7l6,2.3
		L1492.8,428.3z"/>
	<path id="XMLID_45_" fill="#908FC6" d="M1531.8,341.4l-20.8,39.3l-24.9,43.6l8.1,0.3l22.2-30.6l29.4-37.6c3.8-3,5-8.3,2.8-12.6l0,0
		C1545.4,337.1,1536.6,336,1531.8,341.4z"/>
	<linearGradient id="XMLID_175_" gradientUnits="userSpaceOnUse" x1="1535.4216" y1="397.0788" x2="1542.2527" y2="355.0244">
		<stop  offset="0" style="stop-color:#4F56A4;stop-opacity:0"/>
		<stop  offset="1" style="stop-color:#4D57A5;stop-opacity:0.5018"/>
	</linearGradient>
	<path id="XMLID_44_" fill="url(#XMLID_175_)" d="M1543.7,392.4c-0.6-8-3.4-32.8-3.4-32.8l-8.6,14.4L1543.7,392.4z"/>
	<g id="XMLID_41_">
		<path id="XMLID_43_" fill="#EDBCC4" d="M1316.9,457.7c-1.4,0-12.6,4.7-12.6,4.7l8.7,71.8c-2,0.9-4.7,1.5-6.6,2
			c-4.3,1.2-8.1,1.7-11.9,4.2c-0.3,0.2-0.4,1.3-0.5,1.7c-0.1,0.8,1,1.2,1.8,1.2c5.2,0.2,10.4,0.2,15.6,0.1c3.3-0.1,6-1.8,9-3.3
			c1.7-0.9,2.4-3.5,2.3-4.7C1322.7,535,1318.3,457.7,1316.9,457.7z"/>
		<path id="XMLID_42_" fill="#535064" d="M1307.3,540.7c5-0.5,11.7-2.7,15.6-5.9c0.3,3.3-0.6,6.5-6.9,8.1
			c-7.3,1.9-15.1,3.9-22.3,1.8c-0.8-0.2-1.7-0.7-1.6-1.5c0-0.4,0.2-0.7,0.4-1c1.3-1.7,5.1-4.8,7.3-4c1.2,0.4,2,1.7,3.3,2.2
			C1304.5,540.8,1305.9,540.8,1307.3,540.7z"/>
	</g>
	<g id="XMLID_37_">
		<path id="XMLID_40_" fill="#EDBCC4" d="M1316.9,543.3"/>
		<path id="XMLID_39_" fill="#EDBCC4" d="M1343.7,535.4c0-0.4-4.4-77.7-5.8-77.7c-1.4,0-12.6,4.7-12.6,4.7l8.7,71.8
			c1.5,3.9,2.7,7.6,4.9,11.1c2.1,3.5,5,6.8,8.7,8.7c0.4,0.2,0.9,0.4,1.3,0.1c0.2-0.1,0.3-0.4,0.4-0.7c0.6-2.1-0.3-4.4-1.2-6.4
			C1346.5,543.3,1344,539.4,1343.7,535.4z"/>
		<path id="XMLID_38_" fill="#535064" d="M1336.4,544.8c2.2,4.1,5,8.4,9.3,10.3c0.7,0.3,1.5,0.6,2.3,0.4c1.1-0.2,1.8-1.2,2.1-2.2
			c0.3-1,0.1-2.2-0.2-3.2c-0.4-1.6-1.1-3.1-1.9-4.5c-0.2-0.3-0.5-0.7-0.8-0.7c-0.5-0.1-0.9,0.3-1.3,0.6c-1.1,0.8-2.7,0.7-3.9,0
			c-1.2-0.7-2.1-1.8-2.9-2.9c-1.6-2.2-3.1-6.3-5.3-7.6C1333,538.4,1334.8,541.9,1336.4,544.8z"/>
	</g>
	<g id="XMLID_28_">
		<circle id="XMLID_36_" fill="#535064" cx="1213.6" cy="556.5" r="5.3"/>
		<circle id="XMLID_35_" fill="#535064" cx="1277.9" cy="556.5" r="5.3"/>
		<circle id="XMLID_34_" fill="#535064" cx="1244.4" cy="556.5" r="5.3"/>
		<path id="XMLID_33_" fill="none" stroke="#535064" stroke-miterlimit="10" d="M1213.6,556.5v-2.8c0-6.2,5-11.2,11.2-11.2h21v-54.5
			"/>
		<path id="XMLID_32_" fill="none" stroke="#535064" stroke-miterlimit="10" d="M1277.3,556.5v-2.8c0-6.2-5-11.2-11.2-11.2h-21
			v-54.5"/>
		<line id="XMLID_31_" fill="none" stroke="#535064" stroke-miterlimit="10" x1="1244.4" y1="556.5" x2="1244.4" y2="542.5"/>
		<rect id="XMLID_30_" x="1238.7" y="515" fill="#535064" width="11.9" height="27"/>
		<rect id="XMLID_29_" x="1240.6" y="488.5" fill="#535064" width="7.6" height="30.7"/>
	</g>
	<g id="XMLID_16_">
		<circle id="XMLID_27_" fill="#535064" cx="1418.6" cy="556.5" r="5.3"/>
		<circle id="XMLID_26_" fill="#535064" cx="1483" cy="556.5" r="5.3"/>
		<circle id="XMLID_25_" fill="#535064" cx="1449.4" cy="556.5" r="5.3"/>
		<path id="XMLID_24_" fill="none" stroke="#535064" stroke-miterlimit="10" d="M1418.6,556.5v-2.8c0-6.2,5-11.2,11.2-11.2h21v-54.5
			"/>
		<path id="XMLID_23_" fill="none" stroke="#535064" stroke-miterlimit="10" d="M1482.4,556.5v-2.8c0-6.2-5-11.2-11.2-11.2h-21
			v-54.5"/>
		<line id="XMLID_22_" fill="none" stroke="#535064" stroke-miterlimit="10" x1="1449.4" y1="556.5" x2="1449.4" y2="542.5"/>
		<rect id="XMLID_18_" x="1443.7" y="515" fill="#535064" width="11.9" height="27"/>
		<rect id="XMLID_17_" x="1445.6" y="488.5" fill="#535064" width="7.6" height="30.7"/>
	</g>
	<g id="XMLID_9_">
		<rect id="XMLID_14_" x="1127.5" y="434.1" fill="#BAB9CD" width="367" height="58.1"/>
		<rect id="XMLID_13_" x="1128.1" y="434.5" fill="#535064" width="6.2" height="148.2"/>
		<rect id="XMLID_12_" x="1492.5" y="434.5" fill="#535064" width="6.2" height="148.2"/>
		<linearGradient id="XMLID_176_" gradientUnits="userSpaceOnUse" x1="1310.943" y1="460.3874" x2="1336.9131" y2="340.5254">
			<stop  offset="0" style="stop-color:#686576;stop-opacity:0"/>
			<stop  offset="1" style="stop-color:#535064;stop-opacity:0.7"/>
		</linearGradient>
		<polygon id="XMLID_11_" fill="url(#XMLID_176_)" points="1498.7,468.4 1127.1,434.4 1498.7,434.4 		"/>
		<rect id="XMLID_10_" x="1113.2" y="428.3" fill="#DFE3EC" width="399" height="9.9"/>
	</g>
</g>
<g id="XMLID_6_">
	<path id="XMLID_5_" fill="#84CBDD" d="M-14.9,740.2c256-27.8,377.4-15.3,527.5,21.4c150,36.7,239.7,15.1,413.7-32.7
		c174-47.8,413.4,33.1,593.4,33.1c180,0,288.4-48.6,415.4-48.6V613H-14.2L-14.9,740.2z"/>
	<path id="XMLID_4_" fill="#378DA7" d="M1301.4,601.2l-333.6,3l-97.5-13.9l-86.9,15.5L-14.9,613l0.3,47.4
		c46.1,18.3,117.9,40.6,204.2,39.3c90.4-1.4,112.2-26.8,218.3-32.6c111.3-6.1,125.9,20.1,242.6,17.5c134.3-3,140.8-38.1,252.8-37.9
		c138.2,0.3,157.6,53.9,293.5,54.4c125.5,0.4,138.8-45.2,262.9-43.1c123,2.1,156.4,47.7,276.4,48.2c86.9,0.4,154.9-23.2,198.9-41
		v-69.8l-439.5,3.9l-77.4-0.4l-13-0.3c0,0-5.7-0.6-11.6-0.8c-5.9-0.3-22.3-1.5-22.3-1.5L1301.4,601.2z"/>
	<g>
		<polygon id="XMLID_3_" fill="#1F4F6E" points="-14.9,504.1 -14.9,504.1 -14.9,504.2 		"/>
		<path id="XMLID_2_" fill="#1F4F6E" d="M1663.7,531.7c-115,9.4-145.5,68.2-248.9,67.3c-3.3,0-6.6-0.1-9.8-0.3
			c76.8,7.2,153,44.2,234.8,54.8c66.9,8.7,119.4-4,295.1-58.1C1823.2,525,1727.8,526.5,1663.7,531.7z"/>
		<path id="XMLID_1_" fill="#1F4F6E" d="M1168.6,527.3c-117.2-6.9-146.4,52-291.3,60.1c-151,8.5-197.3-74.3-351.4-64.8
			c-124.5,7.6-148.8,64.9-264.4,69.7c-111.5,4.6-210-43.9-276.5-86.5v113.4c93.3,30.6,175.1,40.3,241.4,35.2
			c94.6-7.3,110.2-41,200.2-43.8c103.5-3.3,137.9,39.5,239.5,36.3c101.4-3.2,115.2-47.4,209.6-49.2c104.6-2,134.4,51.4,245.7,52.4
			c115.7,1,156.1-56,266.7-52.4c1.8,0.1,3.5,0.2,5.3,0.2C1303.8,589.4,1279,533.8,1168.6,527.3z"/>
	</g>
</g>
</svg>
