<?xml version="1.0" encoding="utf-8"?>
<!DOCTYPE svg PUBLIC "-//W3C//DTD SVG 1.1//EN" "http://www.w3.org/Graphics/SVG/1.1/DTD/svg11.dtd" [
	<!ENTITY st0 "fill:#84CBDD;">
	<!ENTITY st1 "fill:#1F4F6E;">
	<!ENTITY st2 "fill:#FFFFFF;">
	<!ENTITY st3 "fill:#378DA7;">
	<!ENTITY st4 "fill:#0C2E4D;">
]>
<svg version="1.1" id="Layer_1" xmlns="http://www.w3.org/2000/svg" xmlns:xlink="http://www.w3.org/1999/xlink" x="0px" y="0px"
	 width="1920px" height="780px" viewBox="0 0 1920 780" style="enable-background:new 0 0 1920 780;" xml:space="preserve">
<rect style="&st2;" width="1920" height="780"/>
<rect style="&st4;" width="1920" height="629.843"/>
<g>
	<path style="&st0;" d="M-17.81,739.785c256.789-27.863,378.538-15.236,529.003,21.544
		c150.461,36.777,240.425,15.229,414.966-32.694c174.536-47.927,414.638,33.247,595.196,33.247
		c180.551,0,289.923-48.738,416.645-48.738V612H-17.058L-17.81,739.785z"/>
	<path style="&st3;" d="M1302.403,600.62l-334.611,3.005l-97.832-13.909l-87.117,15.568l-800.653,7.185l0.254,47.587
		c46.236,18.352,118.232,40.766,204.809,39.455c90.698-1.376,112.535-26.898,218.928-32.727
		c111.655-6.119,126.243,20.189,243.362,17.575c134.744-3.006,141.228-38.229,253.536-38.007
		c138.616,0.274,158.096,54.085,294.397,54.534c125.833,0.415,139.208-45.317,263.721-43.184
		c123.369,2.109,156.964,47.834,277.246,48.345c87.131,0.368,155.613-23.247,199.557-41.136v-69.996l-440.894,3.956l-77.63-0.406
		l-13.063-0.271c0,0-5.725-0.574-11.683-0.844c-5.958-0.267-22.375-1.461-22.375-1.461L1302.403,600.62z"/>
	<g>
		<polygon style="&st1;" points="-17.792,503.248 -17.792,503.248 -17.792,503.326 		"/>
		<path style="&st1;" d="M1665.816,530.963c-115.373,9.426-145.918,68.358-249.646,67.495c-3.345-0.026-6.601-0.117-9.782-0.263
			c77.073,7.191,153.422,44.302,235.442,54.997c67.145,8.753,119.743-3.985,295.968-58.276
			C1825.691,524.207,1730.073,525.713,1665.816,530.963z"/>
		<path style="&st1;" d="M1169.226,526.505c-117.526-6.902-146.879,52.11-292.134,60.26
			c-151.397,8.497-197.878-74.51-352.399-65.034c-124.89,7.657-149.192,65.13-265.151,69.93
			c-111.845,4.631-210.609-44.034-277.334-86.796v113.773c93.618,30.706,175.642,40.463,242.158,35.331
			c94.879-7.321,110.546-41.129,200.741-43.977c103.819-3.277,138.296,39.663,240.154,36.439
			c101.677-3.221,115.566-47.541,210.261-49.321c104.929-1.974,134.809,51.54,246.423,52.527
			c115.993,1.027,156.531-56.131,267.5-52.532c1.758,0.057,3.518,0.157,5.274,0.246
			C1304.763,588.838,1279.942,533.007,1169.226,526.505z"/>
	</g>
</g>
</svg>
