<?xml version="1.0" encoding="utf-8"?>
<!-- Generator: Adobe Illustrator 16.0.0, SVG Export Plug-In . SVG Version: 6.00 Build 0)  -->
<!DOCTYPE svg PUBLIC "-//W3C//DTD SVG 1.1//EN" "http://www.w3.org/Graphics/SVG/1.1/DTD/svg11.dtd">
<svg version="1.1" id="Layer_1" xmlns="http://www.w3.org/2000/svg" xmlns:xlink="http://www.w3.org/1999/xlink" x="0px" y="0px"
	 width="408.547px" height="303.419px" viewBox="0 0 408.547 303.419" enable-background="new 0 0 408.547 303.419"
	 xml:space="preserve">
<rect fill="#00253D" width="408.547" height="303.419"/>
<g>
	<g>
		<g>
			<path fill="#F7941E" d="M110.538,156.273H98.655l-14.623,48.115h9.927l3.005-9.826h15.129l3.005,9.826h10.063L110.538,156.273z
				 M99.621,185.84l4.908-15.863l4.907,15.863H99.621z"/>
			<path fill="#F7941E" d="M194.06,200.35c-0.71,0.646-1.47,1.256-2.277,1.826c-0.809,0.57-1.653,1.066-2.537,1.486
				s-1.793,0.754-2.731,1c-0.937,0.248-1.89,0.373-2.86,0.373c-2.132,0-4.135-0.377-6.009-1.131
				c-1.875-0.754-3.517-1.826-4.928-3.215c-1.411-1.391-2.521-3.082-3.328-5.074c-0.808-1.99-1.212-4.227-1.212-6.705v-19.129h8.789
				v19.129c0,1.164,0.178,2.203,0.533,3.119c0.355,0.916,0.835,1.686,1.438,2.311s1.309,1.098,2.117,1.422
				c0.807,0.322,1.674,0.484,2.6,0.484c0.906,0,1.761-0.211,2.569-0.631c0.808-0.42,1.514-0.973,2.117-1.664
				c0.603-0.689,1.077-1.469,1.421-2.342c0.345-0.873,0.517-1.771,0.517-2.699v-19.129h8.822v34.607h-2.132L194.06,200.35z"/>
			<path fill="#F7941E" d="M237.134,179.434c-0.928-2.223-2.186-4.162-3.777-5.799c-0.201-0.203-0.404-0.404-0.615-0.598
				c-0.074-0.074-0.156-0.146-0.238-0.211c-0.441-0.357-0.893-0.707-1.361-1.039c-0.938-0.67-1.93-1.25-2.961-1.746
				c-1.027-0.496-2.104-0.881-3.197-1.168c-1.104-0.275-2.205-0.412-3.326-0.412c-2.438,0-4.727,0.439-6.867,1.342
				c-2.15,0.891-4.016,2.141-5.623,3.76c-1.609,1.617-2.869,3.547-3.798,5.799c-0.928,2.252-1.387,4.725-1.387,7.418
				c0,2.885,0.459,5.459,1.387,7.719c0.929,2.262,2.189,4.174,3.798,5.736c1.607,1.563,3.473,2.756,5.623,3.576
				c2.141,0.816,4.43,1.223,6.867,1.223c1.121,0,2.223-0.139,3.307-0.414c1.086-0.287,2.152-0.664,3.182-1.15
				c1.037-0.486,2.021-1.057,2.957-1.709c0.941-0.662,1.83-1.369,2.668-2.123l3.428,4.752h1.322V186.75
				C238.521,184.104,238.062,181.668,237.134,179.434z M229.755,190.279c-0.469,1.141-1.105,2.133-1.895,3.006
				c-0.799,0.873-1.729,1.582-2.793,2.105c-1.066,0.523-2.207,0.789-3.41,0.789c-1.215,0-2.346-0.201-3.41-0.615
				c-1.066-0.404-1.996-1.01-2.777-1.811c-0.789-0.791-1.404-1.773-1.865-2.949c-0.451-1.178-0.67-2.52-0.67-4.025
				c0-1.508,0.219-2.85,0.67-4.025c0.461-1.168,1.076-2.162,1.865-2.951c0.781-0.801,1.711-1.406,2.777-1.811
				c1.064-0.414,2.195-0.617,3.41-0.617c1.203,0,2.344,0.268,3.41,0.791c1.064,0.533,1.994,1.232,2.793,2.105
				c0.789,0.873,1.426,1.875,1.895,3.004c0.459,1.131,0.688,2.299,0.688,3.504C230.442,187.982,230.214,189.15,229.755,190.279z"/>
			<path fill="#F7941E" d="M280.69,186.779c0,2.713-0.465,5.191-1.391,7.43c-0.926,2.242-2.186,4.166-3.781,5.77
				c-1.594,1.604-3.463,2.848-5.605,3.732c-2.145,0.883-4.443,1.324-6.898,1.324c-2.434,0-4.723-0.453-6.867-1.357
				c-2.143-0.904-4.018-2.166-5.623-3.781c-1.604-1.615-2.869-3.537-3.797-5.768c-0.924-2.229-1.389-4.68-1.389-7.35v-30.762h8.854
				v16.156c0.475-0.604,1.051-1.143,1.73-1.617c0.678-0.473,1.41-0.859,2.195-1.162c0.787-0.303,1.6-0.533,2.439-0.695
				c0.842-0.16,1.66-0.242,2.457-0.242c2.455,0,4.754,0.459,6.898,1.373c2.143,0.918,4.012,2.193,5.605,3.83
				c1.596,1.637,2.855,3.57,3.781,5.799C280.226,181.689,280.69,184.129,280.69,186.779z M271.804,186.779
				c0-1.336-0.232-2.58-0.695-3.732s-1.094-2.148-1.891-2.99c-0.797-0.84-1.729-1.496-2.795-1.971
				c-1.066-0.473-2.203-0.711-3.408-0.711c-1.207,0-2.344,0.264-3.41,0.791c-1.064,0.529-1.996,1.229-2.795,2.102
				c-0.797,0.873-1.422,1.873-1.873,3.004c-0.453,1.133-0.678,2.301-0.678,3.508c0,1.336,0.225,2.572,0.678,3.715
				c0.451,1.143,1.076,2.133,1.873,2.973c0.799,0.84,1.73,1.502,2.795,1.988c1.066,0.484,2.203,0.727,3.41,0.727
				c1.205,0,2.342-0.242,3.408-0.727c1.066-0.486,1.998-1.148,2.795-1.988s1.428-1.83,1.891-2.973S271.804,188.115,271.804,186.779z
				"/>
			<path fill="#F7941E" d="M295.974,160.379c0,0.82-0.156,1.584-0.469,2.295s-0.738,1.33-1.277,1.857
				c-0.537,0.529-1.168,0.949-1.891,1.26c-0.721,0.313-1.49,0.469-2.309,0.469c-0.82,0-1.59-0.156-2.311-0.469
				c-0.723-0.311-1.348-0.73-1.875-1.26c-0.527-0.527-0.947-1.146-1.26-1.857s-0.469-1.475-0.469-2.295
				c0-0.795,0.156-1.555,0.469-2.277s0.732-1.346,1.26-1.875c0.527-0.527,1.152-0.947,1.875-1.26
				c0.721-0.311,1.49-0.469,2.311-0.469c0.818,0,1.588,0.158,2.309,0.469c0.723,0.313,1.354,0.732,1.891,1.26
				c0.539,0.529,0.965,1.152,1.277,1.875S295.974,159.584,295.974,160.379z M294.454,204.389h-8.885v-34.607h8.885V204.389z"/>
			<path fill="#F7941E" d="M318.526,204.389c-2.131,0-4.135-0.404-6.01-1.211c-1.875-0.809-3.516-1.918-4.928-3.33
				c-1.41-1.408-2.52-3.053-3.328-4.926c-0.807-1.875-1.211-3.879-1.211-6.012v-10.273h-4.299v-8.789h4.299v-13.83h8.789v13.83
				h13.377v8.789h-13.377v10.273c0,0.928,0.172,1.795,0.516,2.602c0.346,0.809,0.82,1.514,1.422,2.117
				c0.604,0.604,1.314,1.082,2.133,1.438s1.691,0.533,2.617,0.533h6.689v8.789H318.526z"/>
		</g>
	</g>
	<path fill="#12BDC9" d="M159.566,170.975l-3.42,4.1c-0.845-0.754-1.727-1.461-2.664-2.133c-0.939-0.662-1.932-1.24-2.96-1.727
		c-1.039-0.48-2.095-0.865-3.181-1.15c-1.093-0.275-2.196-0.414-3.317-0.414c-2.437,0-4.725,0.432-6.865,1.305
		c-2.142,0.875-4.017,2.105-5.617,3.705c-1.608,1.59-2.876,3.512-3.804,5.762c-0.919,2.252-1.387,4.752-1.387,7.482
		c0,2.713,0.468,5.203,1.387,7.445c0.928,2.252,2.196,4.191,3.804,5.809c1.6,1.609,3.476,2.867,5.617,3.76
		c2.14,0.891,4.428,1.342,6.865,1.342c0.781,0,1.544-0.084,2.316-0.258c0.763-0.174,1.517-0.404,2.262-0.699
		c0.745-0.283,1.461-0.615,2.159-0.982c0.699-0.367,1.388-0.746,2.059-1.131v18.369c-0.009,0.064-0.018,0.129-0.018,0.193
		c0,2.426,1.985,4.402,4.449,4.402c2.454,0,4.439-1.967,4.448-4.395v-50.785H159.566z M152.122,191.414
		c-0.459,1.133-1.093,2.135-1.894,3.008c-0.79,0.863-1.727,1.57-2.793,2.096c-1.066,0.533-2.197,0.789-3.411,0.789
		c-1.205,0-2.343-0.211-3.409-0.625c-1.066-0.422-1.985-1.029-2.777-1.828c-0.781-0.801-1.406-1.783-1.856-2.961
		c-0.45-1.168-0.68-2.498-0.68-3.988c0-1.443,0.23-2.738,0.68-3.896c0.451-1.148,1.076-2.133,1.856-2.951
		c0.792-0.816,1.711-1.451,2.777-1.893c1.066-0.441,2.205-0.662,3.409-0.662c1.213,0,2.344,0.266,3.411,0.791
		c1.066,0.533,2.003,1.23,2.793,2.104c0.801,0.875,1.435,1.875,1.894,3.006c0.46,1.131,0.698,2.297,0.698,3.502
		S152.582,190.285,152.122,191.414z"/>
	<path fill="#FEF6A7" d="M161.695,205.035h13.801c0,0-13.801,2.16-13.801,17.322"/>
	<path fill="none" stroke="#000000" stroke-miterlimit="10" d="M172.671,205.035"/>
	<path fill="none" stroke="#000000" stroke-miterlimit="10" d="M183.479,205.035"/>
	<g>
		<g>
			<path fill="#FEF6A7" d="M204.624,74.498c-22.464,0-40.671,18.209-40.671,40.67c0,22.463,18.207,40.672,40.671,40.672
				c22.459,0,40.668-18.209,40.668-40.672l0.004-3.854V74.503h-40.672"/>
		</g>
		<path fill="#12BDC9" d="M217.94,91.756l-3.42,4.1c-0.846-0.754-1.727-1.461-2.664-2.132c-0.938-0.663-1.932-1.241-2.959-1.729
			c-1.039-0.477-2.096-0.863-3.182-1.148c-1.092-0.274-2.195-0.412-3.318-0.412c-2.436,0-4.725,0.43-6.864,1.305
			c-2.142,0.872-4.018,2.104-5.617,3.703c-1.607,1.59-2.875,3.512-3.804,5.762c-0.919,2.254-1.387,4.752-1.387,7.482
			c0,2.713,0.468,5.203,1.387,7.445c0.929,2.252,2.196,4.191,3.804,5.809c1.6,1.608,3.476,2.868,5.617,3.759
			c2.14,0.892,4.429,1.343,6.864,1.343c0.781,0,1.545-0.083,2.316-0.258c0.763-0.175,1.517-0.404,2.261-0.699
			c0.746-0.283,1.461-0.615,2.16-0.983c0.699-0.366,1.389-0.743,2.059-1.129v18.369c-0.008,0.065-0.018,0.128-0.018,0.192
			c0,2.428,1.986,4.403,4.447,4.403c2.455,0,4.439-1.968,4.449-4.395V91.756H217.94z M210.497,112.197
			c-0.461,1.131-1.094,2.133-1.895,3.005c-0.789,0.864-1.727,1.572-2.793,2.097c-1.066,0.533-2.198,0.789-3.412,0.789
			c-1.204,0-2.342-0.211-3.409-0.624c-1.065-0.423-1.984-1.03-2.776-1.829c-0.781-0.801-1.405-1.782-1.856-2.96
			c-0.449-1.167-0.68-2.499-0.68-3.989c0-1.443,0.23-2.739,0.68-3.896c0.451-1.149,1.075-2.133,1.856-2.949
			c0.792-0.819,1.711-1.453,2.776-1.895c1.067-0.441,2.205-0.662,3.409-0.662c1.214,0,2.346,0.268,3.412,0.791
			c1.066,0.533,2.004,1.232,2.793,2.104c0.801,0.874,1.434,1.876,1.895,3.005c0.459,1.131,0.697,2.297,0.697,3.502
			S210.956,111.066,210.497,112.197z"/>
		<path fill="#025B68" d="M220.048,125.816h13.803c0,0-13.803,2.162-13.803,17.323"/>
	</g>
</g>
<text transform="matrix(1 0 0 1 138.9307 253.8457)" fill="#FFFFFF" font-family="'Fofer'" font-size="32">COMING SOON</text>
</svg>
