<?xml version="1.0" encoding="utf-8"?>
<!-- Generator: Adobe Illustrator 16.0.0, SVG Export Plug-In . SVG Version: 6.00 Build 0)  -->
<!DOCTYPE svg PUBLIC "-//W3C//DTD SVG 1.1//EN" "http://www.w3.org/Graphics/SVG/1.1/DTD/svg11.dtd">
<svg version="1.1" id="Layer_1" xmlns="http://www.w3.org/2000/svg" xmlns:xlink="http://www.w3.org/1999/xlink" x="0px" y="0px"
	 width="1920px" height="759.667px" viewBox="0 0 1920 759.667" enable-background="new 0 0 1920 759.667" xml:space="preserve">
<path fill="#0C2E4D" d="M1939,152.205l-440.55,3.954l-77.56-0.406l-13.048-0.271c0,0-5.716-0.575-11.671-0.844
	c-5.953-0.267-22.358-1.459-22.358-1.459l-69.899,4.725l-334.37,3.002l-97.762-13.899l-87.055,15.557l-800.076,7.182l0.254,107.321
	c4.757,1.888,9.803,3.82,15.094,5.764v476.835h1920V289.343c6.756-2.529,13.104-5.029,19-7.424V152.205z"/>
<path fill="#84CBDD" d="M-15.348,42.786c256.604,27.842,378.266,15.632,528.622-21.119C663.627-15.087,753.526,6.653,927.94,54.542
	c174.411,47.891,414.312-33.123,594.74-33.123c180.423,0,289.319,48.804,416.319,48.804v99.444H-14.597L-15.348,42.786z"/>
<path fill="#378DA7" d="M1303.914,182.666l-334.37-3.003l-97.762,13.899l-87.055-15.559l-800.076-7.18l0.254-47.549
	c46.202-18.34,118.147-40.738,204.661-39.428c90.633,1.374,112.455,26.878,218.771,32.703
	c111.574,6.112,126.151-20.175,243.187-17.565c134.647,3.006,141.126,38.205,253.353,37.981
	c138.518-0.274,157.982-54.046,294.186-54.495c125.742-0.414,139.108,45.286,263.531,43.154
	c123.281-2.109,156.825-47.801,277.018-48.31c87.07-0.369,155.389,23.229,199.389,41.105v69.945l-440.55-3.954l-77.56,0.409
	l-13.048,0.269c0,0-5.716,0.574-11.671,0.84c-5.953,0.27-22.358,1.462-22.358,1.462L1303.914,182.666z"/>
<g>
	<polygon fill="#1F4F6E" points="-15.33,279.967 -15.33,279.967 -15.33,279.888 	"/>
	<path fill="#1F4F6E" d="M1667.064,252.273c-115.289-9.42-145.813-68.312-249.465-67.448c-3.342,0.028-6.596,0.117-9.775,0.264
		c77.018-7.187,153.313-44.271,235.273-54.957c67.096-8.748,119.657,3.981,295.754,58.233
		C1826.825,259.023,1731.274,257.518,1667.064,252.273z"/>
	<path fill="#1F4F6E" d="M1186.536,240.931c-23.497,0.693-47.083-1.565-70.077-6.94c-42.17-9.854-82.178-27.499-124.756-35.825
		c-61.481-12.021-115.241,4.043-169.12,33.425c-86.187,46.999-170.787,42.573-263.163,15.632
		c-70.78-20.646-137.246-53.079-212.239-56.186c-113.939-4.72-226.265,27.185-331.053,69.245
		C5.53,264.535-8.311,268.616-15.33,278.29c0.002-11.176-5.565-111.803,0-113.63c93.551-30.684,175.515-40.435,241.983-35.305
		c94.81,7.316,110.465,41.101,200.596,43.943c103.745,3.276,138.198-39.633,239.981-36.41
		c101.604,3.216,115.482,47.505,210.109,49.284c104.852,1.972,134.711-51.502,246.245-52.489
		c94.155-0.834,175.003,56.115,269.292,52.416c-41.254,3.537-77.967,23.275-116.183,37.343
		C1247.8,234.078,1217.242,240.026,1186.536,240.931z"/>
</g>
</svg>
