<?xml version="1.0" encoding="utf-8"?>
<!-- Generator: Adobe Illustrator 19.0.0, SVG Export Plug-In . SVG Version: 6.00 Build 0)  -->
<svg version="1.1" id="Layer_1" xmlns="http://www.w3.org/2000/svg" xmlns:xlink="http://www.w3.org/1999/xlink" x="0px" y="0px"
	 viewBox="0 0 338 110.3" enable-background="new 0 0 338 110.3" xml:space="preserve">
<path id="XMLID_74_" fill="#E77A27" d="M103.4,103.5c-0.6,0.5-1.2,1-1.8,1.5c-0.1,0.1-0.2,0.2-0.3,0.3c-1.3,1-2.7,1.8-4.1,2.5
	c-0.4,0.2-0.9,0.4-1.3,0.6v0c4.1-0.9,7.9-2.5,11.3-4.6l0,0c1.3-0.8,2.6-1.7,3.8-2.6V86C110.9,92.9,108,99.1,103.4,103.5z"/>
<g id="XMLID_70_">
	<path id="XMLID_30_" fill="#D86931" d="M103,68.9"/>
	<path id="XMLID_29_" fill="#D86931" d="M103.6,68.7"/>
	<path id="XMLID_28_" fill="#D86931" d="M87.7,46.1c-0.2,0-0.4,0-0.5,0c-2.3,0-4.4,0.9-5.9,2.4l0,0c-3.4,0.9-6.5,2.5-9.1,4.6
		c-3.4,2.8-6,6.5-7.5,10.8c-0.1-0.1-0.1-0.3-0.1-0.4c-0.1-0.3-0.2-0.6-0.3-0.9c0-0.1-0.1-0.2-0.1-0.3v0c0-0.2-0.1-0.3-0.1-0.5
		c0-0.1,0-0.1,0-0.2c0-0.2-0.1-0.4-0.1-0.6c0,0,0-0.1,0-0.1c0-0.2-0.1-0.4-0.1-0.6c0,0,0,0,0,0l-0.1-0.3c0-0.3-0.1-0.6-0.1-0.8
		c-0.1-1-0.2-2-0.2-3c0-3.8,0.9-7.4,2.5-10.6c4-2,8.5-2.8,12.9-2.4c0.2,0,0.4,0,0.7,0.1c0.2,0,0.3,0,0.5,0.1c0.2,0,0.4,0.1,0.6,0.1
		c0.2,0,0.4,0.1,0.6,0.1c0.4,0.1,0.7,0.2,1.1,0.3c0.5,0.1,1.1,0.3,1.6,0.5c0.1,0,0.3,0.1,0.4,0.1c0.3,0.1,0.6,0.2,1,0.4
		c0.3,0.1,0.5,0.2,0.8,0.3c0.2,0.1,0.4,0.2,0.5,0.2c0.2,0.1,0.4,0.2,0.5,0.3c0.2,0.1,0.4,0.2,0.5,0.3h0
		C87.6,46.1,87.7,46.1,87.7,46.1z"/>
</g>
<path id="XMLID_27_" fill="#D86931" d="M111,40.9v15.2c0-0.9-0.1-1.8-0.2-2.7c0-0.3-0.1-0.6-0.1-0.9c-0.1-0.3-0.1-0.7-0.2-1
	c0,0,0,0,0,0c-0.1-0.3-0.1-0.6-0.2-0.9c-0.1-0.4-0.2-0.8-0.3-1.2c-0.1-0.2-0.1-0.4-0.2-0.6v0c-1.1-3.4-3-6.5-5.7-9.2
	c-0.2-0.2-0.3-0.3-0.5-0.5l1.7-2h0C107.2,38.2,109.2,39.4,111,40.9z"/>
<path id="XMLID_26_" fill="#C95739" d="M111,35.3v5.6c-1.8-1.4-3.7-2.7-5.7-3.8l1.4-1.6l0.9-1C108.6,34.8,109.8,35,111,35.3z"/>
<path id="XMLID_25_" fill="#BB493F" d="M111,32.8v2.5c-1.2-0.3-2.3-0.5-3.5-0.7l1.6-1.8H111z"/>
<path id="XMLID_24_" fill="#E0712B" d="M111,56.7v13.3c0,0.2,0,0.4,0,0.6c0,0.2,0,0.3,0,0.5c0,0.1,0,0.2,0,0.4
	c0,0.5-0.1,1.1-0.1,1.6c0,0.2,0,0.3-0.1,0.5c0,0.3-0.1,0.7-0.2,1c-0.1,0.3-0.1,0.6-0.2,1c-0.1,0.3-0.1,0.5-0.2,0.7
	c-0.1,0.3-0.1,0.5-0.2,0.7c-0.1,0.3-0.2,0.6-0.3,0.9l0,0.1c-0.3,0.9-0.7,1.7-1.1,2.6c-0.3,0.5-0.5,1.1-0.9,1.6
	c-0.1,0.1-0.1,0.2-0.2,0.3c-0.1,0.2-0.2,0.4-0.4,0.6c-0.1,0.1-0.1,0.2-0.2,0.3c-0.1,0.2-0.3,0.4-0.5,0.7c-0.2,0.3-0.4,0.5-0.6,0.8
	c-0.2,0.2-0.3,0.4-0.5,0.6c0,0.1-0.1,0.1-0.1,0.2c-0.2,0.2-0.4,0.4-0.6,0.6c-0.2,0.2-0.4,0.4-0.6,0.6c-0.1,0.1-0.1,0.1-0.2,0.2
	c-0.1,0.1-0.3,0.3-0.4,0.4c-0.4,0.4-0.8,0.7-1.2,1.1c-0.2,0.1-0.3,0.3-0.5,0.4c-0.5,0.4-0.9,0.7-1.4,1.1c-0.1,0.1-0.3,0.2-0.4,0.3
	c-0.3,0.2-0.5,0.3-0.8,0.5c-0.1,0.1-0.2,0.1-0.3,0.2c-0.2,0.1-0.4,0.2-0.6,0.3c-0.2,0.1-0.4,0.2-0.6,0.3c-0.2,0.1-0.3,0.2-0.5,0.2
	c-0.4,0.2-0.9,0.4-1.3,0.6V78.5c0.5-0.2,0.9-0.4,1.4-0.6c0,0,0.1,0,0.1-0.1c0.1,0,0.1-0.1,0.2-0.1c0.1,0,0.2-0.1,0.2-0.1
	c0.1-0.1,0.2-0.1,0.4-0.2c0.1-0.1,0.3-0.1,0.4-0.2c0.1-0.1,0.3-0.1,0.4-0.2c0.6-0.3,1.1-0.7,1.6-1c0.2-0.1,0.4-0.2,0.5-0.4
	c0.2-0.1,0.4-0.3,0.5-0.4h0c0.1,0,0.1-0.1,0.2-0.2c0.1-0.1,0.3-0.2,0.4-0.3c0.2-0.1,0.3-0.3,0.5-0.4c0,0,0,0,0,0
	c0,0,0.1-0.1,0.1-0.1c0.2-0.2,0.4-0.3,0.5-0.5c0.2-0.2,0.4-0.4,0.6-0.5c0.2-0.2,0.3-0.4,0.5-0.5c0.2-0.2,0.3-0.4,0.5-0.5
	c0.3-0.3,0.5-0.6,0.8-1c0.1-0.1,0.1-0.1,0.2-0.2h0c0.2-0.2,0.3-0.4,0.5-0.6c0.1-0.1,0.2-0.3,0.3-0.4c0.2-0.3,0.4-0.6,0.6-1
	c0.1-0.2,0.2-0.3,0.3-0.5c0.1-0.2,0.3-0.4,0.4-0.7c0.2-0.3,0.3-0.6,0.4-0.8c0.2-0.4,0.4-0.7,0.5-1.1c0-0.1,0.1-0.2,0.1-0.2
	c0-0.1,0.1-0.2,0.1-0.3c0-0.1,0.1-0.2,0.1-0.3c0,0,0-0.1,0-0.1c0.1-0.2,0.1-0.3,0.2-0.5c0,0,0,0,0-0.1c0.1-0.2,0.1-0.4,0.2-0.6
	c0,0,0,0,0,0c0,0,0-0.1,0-0.1c0,0,0,0,0,0c0-0.1,0.1-0.2,0.1-0.3c0.1-0.2,0.1-0.3,0.1-0.5c0,0,0,0,0-0.1c0.1-0.2,0.1-0.4,0.2-0.6
	c0-0.1,0-0.2,0.1-0.2c0-0.1,0-0.2,0.1-0.2c0,0,0,0,0-0.1c0-0.1,0.1-0.3,0.1-0.4c0.1-0.3,0.1-0.6,0.2-0.9c0-0.1,0-0.3,0.1-0.4
	c0-0.1,0-0.2,0-0.4c0-0.1,0-0.3,0.1-0.4c0-0.1,0-0.2,0-0.4c0-0.4,0.1-0.7,0.1-1.1C110.9,57.3,110.9,57,111,56.7z"/>
<path id="XMLID_23_" fill="#EE8322" d="M100.1,48C100.1,48,100.1,48,100.1,48c0,0.4-0.1,0.8-0.1,1.1c0,0.2-0.1,0.4-0.1,0.7
	c0,0,0,0,0,0c0,0,0,0,0,0c0,0.1,0,0.2,0,0.2c0,0.1,0,0.2-0.1,0.3c0,0.2-0.1,0.4-0.1,0.5c0,0,0,0,0,0.1c0,0.1-0.1,0.2-0.1,0.3
	c-0.1,0.3-0.2,0.7-0.3,1c0,0.1-0.1,0.2-0.1,0.4c-0.1,0.3-0.2,0.5-0.2,0.7c-0.1,0.2-0.1,0.4-0.2,0.5c-0.1,0.3-0.2,0.6-0.4,0.9
	c-0.1,0.2-0.2,0.4-0.3,0.6c0,0,0,0.1,0,0.1c-0.1,0.2-0.2,0.4-0.3,0.6c0,0.1-0.1,0.1-0.1,0.2c-0.1,0.2-0.2,0.4-0.3,0.5
	c-0.2,0.4-0.5,0.8-0.7,1.2c-0.1,0.1-0.1,0.2-0.2,0.3c-0.1,0.2-0.3,0.4-0.4,0.7c-0.1,0.1-0.1,0.2-0.2,0.3v-1.4c0,0,0-0.1,0-0.1
	c0,0,0-0.1,0-0.1v-0.2c0,0,0-0.1,0-0.1c0,0,0-0.1,0-0.1v-0.2c0,0,0-0.1,0-0.1s0-0.1,0-0.1V57c0,0,0-0.1,0-0.1s0-0.1,0-0.1v0
	c0-0.1,0-0.1,0-0.2c0-0.1,0-0.2,0-0.3v0c0-0.2,0-0.4,0-0.5v0c0-0.1,0-0.2,0-0.3v0c0-1.1-0.1-2.1-0.3-3.2c0,0,0,0,0,0
	c-0.1-0.5-0.2-1-0.3-1.4c0-0.1-0.1-0.3-0.1-0.4c0-0.1-0.1-0.3-0.1-0.4c0-0.1,0-0.1-0.1-0.2c0-0.1-0.1-0.3-0.1-0.4
	c-0.1-0.2-0.1-0.3-0.2-0.5c-0.1-0.2-0.1-0.4-0.2-0.6c-0.1-0.3-0.2-0.6-0.4-0.9c-0.1-0.1-0.1-0.3-0.2-0.4c-0.1-0.2-0.2-0.5-0.3-0.7
	c-0.1-0.2-0.1-0.3-0.2-0.5c0-0.1-0.1-0.2-0.1-0.3c-0.1-0.1-0.1-0.2-0.2-0.4c-0.1-0.1-0.1-0.3-0.2-0.4c-0.1-0.1-0.1-0.2-0.2-0.3
	c-0.1-0.1-0.2-0.3-0.2-0.4c-0.1-0.1-0.1-0.2-0.2-0.3c-0.1-0.1-0.1-0.2-0.2-0.3c-0.1-0.1-0.2-0.3-0.3-0.4c-0.4-0.7-0.9-1.3-1.4-1.9
	c0,0,0,0,0,0c-2.8-3.4-6.5-6-10.8-7.5c0.5-0.2,1-0.3,1.5-0.4c0.4-0.1,0.9-0.2,1.3-0.3c0.3-0.1,0.6-0.1,0.9-0.2
	c0.3,0,0.5-0.1,0.8-0.1c0,0,0.1,0,0.1,0h0c0.1,0,0.1,0,0.2,0c0.9-0.1,1.8-0.2,2.7-0.2h0.2c0.2,0,0.4,0,0.6,0c0.7,0,1.4,0.1,2,0.2
	c2.8,0.3,5.4,1.1,7.8,2.3C99.8,39.1,100.6,43.6,100.1,48z"/>
<path id="XMLID_22_" fill="#E0712B" d="M95.5,52.4c-1-3.5-4-6-7.7-6.2c0,0-0.1,0-0.1-0.1h0c-0.2-0.1-0.3-0.2-0.5-0.3
	c-0.2-0.1-0.4-0.2-0.5-0.3c-0.2-0.1-0.4-0.2-0.5-0.2c-0.3-0.1-0.5-0.2-0.8-0.3c-0.3-0.1-0.6-0.3-1-0.4c-0.1-0.1-0.3-0.1-0.4-0.1
	c-0.5-0.2-1.1-0.3-1.6-0.5c-0.4-0.1-0.7-0.2-1.1-0.3c-0.2,0-0.4-0.1-0.6-0.1c-0.2,0-0.4-0.1-0.6-0.1c-0.2,0-0.3,0-0.5-0.1
	c-0.2,0-0.4-0.1-0.7-0.1c-4.4-0.4-8.9,0.4-12.9,2.4c0.4-0.7,0.7-1.4,1.2-2.1c0.2-0.3,0.3-0.5,0.5-0.8c0,0,0,0,0,0
	c0.2-0.2,0.3-0.5,0.5-0.7c0.1-0.1,0.2-0.3,0.3-0.4c0.6-0.8,1.3-1.5,2-2.2c2.7-2.7,5.9-4.6,9.2-5.7c4.3,1.4,8,4,10.8,7.5c0,0,0,0,0,0
	c0.5,0.6,1,1.2,1.4,1.9c0.1,0.1,0.2,0.3,0.3,0.4c0.1,0.1,0.1,0.2,0.2,0.3c0.1,0.1,0.1,0.2,0.2,0.3c0.1,0.1,0.2,0.3,0.2,0.4
	c0.1,0.1,0.1,0.2,0.2,0.3c0.1,0.1,0.1,0.3,0.2,0.4c0.1,0.1,0.1,0.2,0.2,0.4c0,0.1,0.1,0.2,0.1,0.3c0.1,0.2,0.2,0.3,0.2,0.5
	c0.1,0.2,0.2,0.5,0.3,0.7c0.1,0.1,0.1,0.3,0.2,0.4c0.1,0.3,0.2,0.6,0.4,0.9c0.1,0.2,0.1,0.4,0.2,0.6c0.1,0.2,0.1,0.3,0.2,0.5
	c0,0.1,0.1,0.3,0.1,0.4c0,0.1,0,0.1,0.1,0.2c0,0.1,0.1,0.3,0.1,0.4c0,0.1,0.1,0.3,0.1,0.4C95.3,51.4,95.4,51.9,95.5,52.4z"/>
<path id="XMLID_21_" fill="#F69320" d="M109.7,48.8L109.7,48.8c-0.1,0.3-0.2,0.5-0.3,0.8c0,0.1,0,0.1-0.1,0.2
	c-0.1,0.2-0.2,0.4-0.3,0.7c-0.1,0.2-0.2,0.5-0.3,0.7c0,0,0,0.1,0,0.1c-0.1,0.2-0.2,0.5-0.4,0.7c-0.1,0.2-0.2,0.4-0.3,0.6
	c-0.1,0.2-0.2,0.4-0.3,0.5c-0.2,0.4-0.4,0.7-0.6,1.1c-0.2,0.3-0.3,0.5-0.5,0.8c-0.2,0.3-0.4,0.5-0.5,0.7c0,0,0,0,0,0
	c-0.3,0.4-0.6,0.7-0.9,1.1c-0.2,0.2-0.4,0.4-0.5,0.6c0,0,0,0,0,0c-0.2,0.2-0.4,0.4-0.6,0.6c-0.2,0.2-0.3,0.3-0.5,0.5
	c-0.4,0.4-0.9,0.8-1.3,1.2c-1,0.8-2,1.5-3.1,2.1c-0.5,0.3-1.1,0.6-1.7,0.9c-0.3,0.1-0.6,0.3-0.9,0.4c-0.3,0.1-0.6,0.2-0.9,0.4v-3.9
	c0.1-0.1,0.2-0.2,0.2-0.3c0.2-0.2,0.3-0.4,0.4-0.7c0.1-0.1,0.1-0.2,0.2-0.3c0.3-0.4,0.5-0.8,0.7-1.2c0.1-0.2,0.2-0.4,0.3-0.5
	c0-0.1,0.1-0.1,0.1-0.2c0.1-0.2,0.2-0.4,0.3-0.6c0,0,0-0.1,0-0.1c0.1-0.2,0.2-0.4,0.3-0.6c0.1-0.3,0.2-0.6,0.4-0.9
	c0.1-0.2,0.1-0.3,0.2-0.5c0.1-0.2,0.2-0.5,0.2-0.7c0-0.1,0.1-0.2,0.1-0.4c0.1-0.3,0.2-0.7,0.3-1c0-0.1,0.1-0.2,0.1-0.3
	c0,0,0,0,0-0.1c0-0.2,0.1-0.4,0.1-0.5c0-0.1,0-0.2,0.1-0.3c0-0.1,0-0.2,0-0.3c0,0,0,0,0,0c0,0,0,0,0,0c0-0.2,0.1-0.4,0.1-0.7
	c0.1-0.4,0.1-0.7,0.1-1.1c0,0,0,0,0,0c0.4-4.4-0.4-8.9-2.4-12.9c0.4,0.2,0.9,0.4,1.3,0.7c0.1,0.1,0.2,0.1,0.4,0.2
	c0.1,0.1,0.3,0.2,0.4,0.2c0.3,0.2,0.5,0.3,0.8,0.5c0,0,0,0,0,0c0.4,0.3,0.8,0.5,1.1,0.8c0.2,0.1,0.4,0.3,0.6,0.4
	c0.4,0.3,0.8,0.7,1.2,1c0.2,0.2,0.3,0.3,0.5,0.5C106.7,42.2,108.6,45.4,109.7,48.8z"/>
<path id="XMLID_20_" fill="#BB493F" d="M95.8,63.4v5.9c-0.1,0-0.2,0-0.2,0h0c-3.1-0.3-6.1-1.2-8.9-2.7c0.2,0,0.4,0,0.5,0
	c2.3,0,4.4-0.9,6-2.4c0.3-0.1,0.6-0.2,0.9-0.2c0,0,0.1,0,0.1,0c0,0,0,0,0,0c0,0,0.1,0,0.1,0c0,0,0,0,0,0c0.2,0,0.3-0.1,0.5-0.2
	c0,0,0.1,0,0.1,0c0,0,0.1,0,0.1,0c0.1-0.1,0.3-0.1,0.5-0.2C95.6,63.5,95.7,63.4,95.8,63.4z"/>
<path id="XMLID_19_" fill="#C24F3D" d="M95.8,69.3v9.2c-0.3,0.1-0.7,0.3-1,0.4l0,0c-0.3-0.1-0.5-0.2-0.8-0.3
	c-0.2-0.1-0.4-0.2-0.6-0.2c-0.1,0-0.2-0.1-0.4-0.1c-0.2-0.1-0.4-0.2-0.6-0.3c-0.3-0.1-0.5-0.3-0.8-0.4c-0.2-0.1-0.4-0.2-0.6-0.3
	c-0.2-0.1-0.3-0.2-0.5-0.3c-0.2-0.1-0.3-0.2-0.5-0.3c-0.6-0.4-1.2-0.8-1.8-1.2c-0.1-0.1-0.2-0.1-0.3-0.2c-0.2-0.1-0.3-0.2-0.5-0.4
	c-0.2-0.2-0.4-0.3-0.6-0.5c-0.5-0.4-0.9-0.8-1.4-1.3v0c-0.1-0.1-0.3-0.3-0.4-0.4c0,0,0,0,0,0c0,0,0,0,0,0c-0.2-0.2-0.4-0.4-0.5-0.6
	c-0.2-0.2-0.4-0.4-0.5-0.6c-0.2-0.2-0.3-0.4-0.5-0.6c0,0,0,0,0,0c-0.1-0.2-0.3-0.3-0.4-0.5c0,0,0,0,0,0c-0.1-0.2-0.3-0.4-0.4-0.6
	c0,0,0,0,0,0c0,0,0,0,0-0.1c0,0,0,0,0,0c-0.1-0.2-0.2-0.4-0.4-0.6c0,0,0,0,0,0c-0.1-0.2-0.3-0.4-0.4-0.7c-0.1-0.1-0.1-0.2-0.2-0.3
	c-0.1-0.1-0.1-0.2-0.2-0.3c0-0.1-0.1-0.1-0.1-0.2c-0.1-0.2-0.2-0.4-0.3-0.5c-0.1-0.2-0.2-0.4-0.3-0.6c-0.1-0.2-0.2-0.3-0.2-0.5
	c-0.1-0.1-0.1-0.3-0.2-0.4c-0.1-0.2-0.1-0.3-0.2-0.5c-0.1-0.1-0.1-0.3-0.1-0.4c-0.1-0.4-0.3-0.7-0.4-1.1c0-0.1-0.1-0.2-0.1-0.3
	c0,0,0-0.1,0-0.1c-0.1-0.2-0.1-0.3-0.1-0.5c-0.1-0.2-0.1-0.4-0.2-0.6c0,0,0-0.1,0-0.1c0,0,0-0.1,0-0.1c0-0.1-0.1-0.2-0.1-0.4
	c0-0.1,0-0.2-0.1-0.4c0,0,0,0,0-0.1c0-0.2-0.1-0.5-0.1-0.7c0.1,0.2,0.1,0.4,0.2,0.6c0,0.1,0.1,0.3,0.2,0.4c0.1,0.1,0.1,0.2,0.2,0.4
	c0.1,0.2,0.2,0.3,0.3,0.5c0,0.1,0.1,0.1,0.1,0.2c0.1,0.2,0.2,0.3,0.3,0.5c0.2,0.2,0.4,0.5,0.5,0.7c0,0,0.1,0.1,0.1,0.1
	c0.1,0.1,0.2,0.2,0.3,0.3c0.1,0.1,0.1,0.1,0.2,0.2c0.1,0.1,0.2,0.2,0.4,0.3c0.1,0.1,0.1,0.1,0.2,0.2c0.1,0.1,0.2,0.2,0.3,0.2
	c0,0,0,0,0,0c0.1,0.1,0.1,0.1,0.2,0.1c0.1,0.1,0.3,0.2,0.4,0.3c0.1,0,0.2,0.1,0.2,0.1c0.2,0.1,0.4,0.2,0.6,0.3
	c0.1,0,0.2,0.1,0.2,0.1c0.2,0.1,0.5,0.2,0.7,0.3c0.1,0,0.3,0.1,0.5,0.1c0,0,0,0,0,0c0.1,0,0.2,0.1,0.4,0.1c0.1,0,0.3,0.1,0.4,0.1
	c0.1,0,0.1,0,0.2,0c0.1,0,0.3,0,0.4,0c2.8,1.5,5.8,2.4,8.9,2.7h0C95.7,69.3,95.7,69.3,95.8,69.3z"/>
<path id="XMLID_18_" fill="#C95739" d="M94.8,78.9c-0.2,0.1-0.4,0.1-0.7,0.2c-0.7,0.2-1.4,0.4-2,0.5c-0.2,0-0.3,0.1-0.5,0.1
	c-0.2,0-0.3,0.1-0.5,0.1c-0.3,0.1-0.6,0.1-1,0.1c-1,0.1-1.9,0.2-2.9,0.2c-3.8,0-7.4-0.9-10.6-2.5v0h0c-1.9-3.8-2.7-7.9-2.4-12
	c0-0.3,0-0.6,0.1-0.9c0,0,0,0,0,0c0.4-4.2,1.9-8.3,4.5-11.8c-0.1,0.6-0.2,1.1-0.2,1.7c0,0.1,0,0.1,0,0.2c0,0.1,0,0.1,0,0.2
	c0,0.1,0,0.1,0,0.2c0,0.1,0,0.1,0,0.2c0,0.1,0,0.1,0,0.2c0,0.1,0,0.1,0,0.2c0,0,0,0.1,0,0.1v0c0,0.1,0,0.1,0,0.2c0,0.1,0,0.2,0,0.3
	c0,0.1,0,0.2,0,0.3c0,0.1,0,0.2,0,0.3v0c0,0,0,0,0,0c0,0.1,0,0.2,0,0.2v0c0,0.2,0,0.4,0,0.6c0,0,0,0.1,0,0.1c0,0.1,0,0.3,0,0.5
	c0,0.1,0,0.1,0,0.2c0,0.1,0,0.2,0,0.3c0,0.2,0,0.4,0.1,0.6c0,0.3,0.1,0.5,0.1,0.8v0c0,0,0,0,0,0c0,0.2,0.1,0.5,0.1,0.7
	c0,0,0,0,0,0.1c0,0.1,0,0.2,0.1,0.4c0,0.1,0,0.2,0.1,0.4c0,0,0,0.1,0,0.1c0,0,0,0.1,0,0.1c0,0.2,0.1,0.4,0.2,0.6
	c0,0.2,0.1,0.3,0.1,0.5c0,0,0,0.1,0,0.1c0,0.1,0.1,0.2,0.1,0.3c0.1,0.4,0.2,0.7,0.4,1.1c0,0.1,0.1,0.3,0.1,0.4
	c0.1,0.2,0.1,0.3,0.2,0.5c0.1,0.1,0.1,0.3,0.2,0.4c0.1,0.2,0.1,0.3,0.2,0.5c0.1,0.2,0.2,0.4,0.3,0.6c0.1,0.2,0.2,0.4,0.3,0.5
	c0,0.1,0.1,0.1,0.1,0.2c0.1,0.1,0.1,0.2,0.2,0.3c0.1,0.1,0.1,0.2,0.2,0.3c0.1,0.2,0.3,0.4,0.4,0.7c0,0,0,0,0,0
	c0.1,0.2,0.2,0.4,0.4,0.6c0,0,0,0,0,0c0,0,0,0,0,0.1c0,0,0,0,0,0c0.1,0.2,0.3,0.4,0.4,0.6c0,0,0,0,0,0c0.1,0.2,0.3,0.3,0.4,0.5
	c0,0,0,0,0,0c0.2,0.2,0.3,0.4,0.5,0.6c0.2,0.2,0.4,0.4,0.5,0.6c0.2,0.2,0.3,0.4,0.5,0.6c0,0,0,0,0.1,0.1c0.1,0.1,0.3,0.3,0.4,0.4
	c0.4,0.4,0.9,0.9,1.4,1.3c0.2,0.2,0.4,0.3,0.6,0.5c0.2,0.1,0.3,0.3,0.5,0.4c0.1,0.1,0.2,0.1,0.3,0.2c0.6,0.4,1.2,0.8,1.8,1.2
	c0.2,0.1,0.3,0.2,0.5,0.3c0.2,0.1,0.3,0.2,0.5,0.3c0.2,0.1,0.4,0.2,0.6,0.3c0.3,0.1,0.5,0.3,0.8,0.4c0.2,0.1,0.4,0.2,0.6,0.3
	c0.1,0.1,0.2,0.1,0.4,0.1c0.2,0.1,0.4,0.2,0.6,0.2C94.2,78.7,94.5,78.8,94.8,78.9z"/>
<path id="XMLID_17_" fill="#D26236" d="M81.2,48.5c-1.2,1.2-2.1,2.7-2.5,4.5c0,0,0,0,0,0c-2.6,3.5-4.1,7.6-4.5,11.8c0,0,0,0,0,0
	c0,0.3,0,0.6-0.1,0.9c-0.3,4.1,0.6,8.2,2.4,12c-0.1-0.1-0.2-0.1-0.4-0.2c-0.1-0.1-0.3-0.1-0.4-0.2c0,0-0.1,0-0.1,0
	c-0.3-0.1-0.5-0.3-0.8-0.5c-0.2-0.1-0.4-0.3-0.7-0.4c-0.2-0.1-0.3-0.2-0.5-0.3c-0.4-0.3-0.8-0.6-1.2-0.9c-0.8-0.6-1.5-1.3-2.2-2
	c-0.7-0.7-1.4-1.5-2.1-2.4c-1.6-2.1-2.8-4.4-3.7-6.9c1.4-4.3,4.1-8,7.5-10.8C74.8,51,77.9,49.4,81.2,48.5z"/>
<path id="XMLID_57_" fill="#E77A27" d="M110.8,53.4c0-0.3-0.1-0.6-0.1-0.9c-0.1-0.3-0.1-0.7-0.2-1c0,0,0,0,0,0
	c-0.1-0.3-0.1-0.6-0.2-0.9c-0.1-0.4-0.2-0.8-0.3-1.2c-0.1-0.2-0.1-0.4-0.2-0.6c-0.1,0.3-0.2,0.5-0.3,0.8c0,0.1,0,0.1-0.1,0.2
	c-0.1,0.2-0.2,0.4-0.3,0.7c-0.1,0.2-0.2,0.5-0.3,0.7c0,0,0,0.1,0,0.1c-0.1,0.2-0.2,0.5-0.4,0.7c-0.1,0.2-0.2,0.4-0.3,0.6
	c-0.1,0.2-0.2,0.4-0.3,0.5c-0.2,0.4-0.4,0.7-0.6,1.1c-0.2,0.3-0.3,0.5-0.5,0.8c-0.2,0.3-0.4,0.5-0.5,0.7c0,0,0,0,0,0
	c-0.3,0.4-0.6,0.7-0.9,1.1c-0.2,0.2-0.4,0.4-0.5,0.6c0,0,0,0,0,0c-0.2,0.2-0.4,0.4-0.6,0.6c-0.2,0.2-0.3,0.3-0.5,0.5
	c-0.4,0.4-0.9,0.8-1.3,1.2c-1,0.8-2,1.5-3.1,2.1c-0.5,0.3-1.1,0.6-1.7,0.9c-0.3,0.1-0.6,0.3-0.9,0.4c-0.3,0.1-0.6,0.3-0.9,0.4v15.1
	c0.5-0.2,0.9-0.4,1.4-0.6c0,0,0.1,0,0.1-0.1c0.1,0,0.1-0.1,0.2-0.1c0.1,0,0.2-0.1,0.2-0.1c0.1-0.1,0.2-0.1,0.4-0.2
	c0.1-0.1,0.3-0.1,0.4-0.2c0.1-0.1,0.3-0.1,0.4-0.2c0.6-0.3,1.1-0.7,1.6-1c0.2-0.1,0.4-0.2,0.5-0.4c0.2-0.1,0.4-0.3,0.5-0.4h0
	c0.1,0,0.1-0.1,0.2-0.2c0.1-0.1,0.3-0.2,0.4-0.3c0.2-0.1,0.3-0.3,0.5-0.4c0,0,0,0,0,0c0,0,0.1-0.1,0.1-0.1c0.2-0.2,0.4-0.3,0.5-0.5
	c0.2-0.2,0.4-0.4,0.6-0.5c0.2-0.2,0.3-0.4,0.5-0.5c0.2-0.2,0.3-0.4,0.5-0.5c0.3-0.3,0.5-0.6,0.8-1c0.1-0.1,0.1-0.1,0.2-0.2h0
	c0.2-0.2,0.3-0.4,0.5-0.6c0.1-0.1,0.2-0.3,0.3-0.4c0.2-0.3,0.4-0.6,0.6-1c0.1-0.2,0.2-0.3,0.3-0.5c0.1-0.2,0.3-0.4,0.4-0.7
	c0.2-0.3,0.3-0.6,0.4-0.8c0.2-0.4,0.4-0.7,0.5-1.1c0-0.1,0.1-0.2,0.1-0.2c0-0.1,0.1-0.2,0.1-0.3c0-0.1,0.1-0.2,0.1-0.3
	c0,0,0-0.1,0-0.1c0.1-0.2,0.1-0.3,0.2-0.5c0,0,0,0,0-0.1c0.1-0.2,0.1-0.4,0.2-0.6c0,0,0,0,0,0c0,0,0-0.1,0-0.1c0,0,0,0,0,0
	c0-0.1,0.1-0.2,0.1-0.3c0.1-0.2,0.1-0.4,0.2-0.6c0.1-0.2,0.1-0.4,0.2-0.6c0-0.1,0-0.2,0.1-0.2c0-0.1,0-0.2,0.1-0.2c0,0,0,0,0-0.1
	c0-0.1,0.1-0.3,0.1-0.4c0.1-0.3,0.1-0.6,0.2-0.9c0-0.1,0-0.3,0.1-0.4c0-0.1,0-0.2,0-0.4c0-0.1,0-0.3,0.1-0.4c0-0.1,0-0.2,0-0.4
	c0-0.4,0.1-0.7,0.1-1.1c0-0.3,0-0.6,0-0.8v-0.6C110.9,55.2,110.9,54.3,110.8,53.4z"/>
<path id="XMLID_15_" fill="#E77A27" d="M116,90.1c0,3.8-1.4,7.3-3.8,10V80.1h0C114.5,82.8,116,86.3,116,90.1z"/>
<path id="XMLID_14_" fill="#AE4645" d="M124.4,80.1c-0.4,1.6-0.9,3.1-1.5,4.6c-2.7-2.8-6.5-4.6-10.8-4.6L124.4,80.1z"/>
<path id="XMLID_13_" fill="#D26236" d="M112.2,100.1c4.8-4.1,8.5-9.3,10.8-15.3c0,0,0,0,0,0c0,0,0,0,0,0
	C120.7,90.7,116.9,96,112.2,100.1c4.8-4.1,8.5-9.3,10.8-15.3c0,0,0,0,0,0c0,0,0,0,0,0C120.7,90.7,116.9,96,112.2,100.1
	c4.8-4.1,8.5-9.3,10.8-15.3c0,0,0,0,0,0c-2.7-2.8-6.5-4.6-10.8-4.6h0h0c2.4,2.6,3.8,6.1,3.8,9.9C116,93.9,114.5,97.4,112.2,100.1
	L112.2,100.1z"/>
<path id="XMLID_12_" fill="#D26236" d="M110.9,70.1V86c0,6.9-2.9,13.1-7.6,17.5c-0.6,0.5-1.2,1-1.8,1.5c-0.1,0.1-0.2,0.2-0.3,0.3
	c-1.3,1-2.7,1.8-4.1,2.5c-0.4,0.2-0.9,0.4-1.3,0.6V92.4c0.5-0.2,0.9-0.4,1.3-0.6c0.2-0.1,0.3-0.2,0.5-0.2c0.2-0.1,0.4-0.2,0.6-0.3
	c0.2-0.1,0.4-0.2,0.6-0.3c0.1-0.1,0.2-0.1,0.3-0.2c0.3-0.2,0.5-0.3,0.8-0.5c0.1-0.1,0.3-0.2,0.4-0.3c0.5-0.3,1-0.7,1.4-1.1
	c0.2-0.1,0.4-0.3,0.5-0.4c0.4-0.3,0.8-0.7,1.2-1.1c0.1-0.1,0.3-0.3,0.4-0.4c0.1-0.1,0.1-0.1,0.2-0.2c0.2-0.2,0.4-0.4,0.6-0.6
	c0.2-0.2,0.4-0.4,0.6-0.6c0.1-0.1,0.1-0.1,0.1-0.2c0.2-0.2,0.3-0.4,0.5-0.6c0.2-0.3,0.4-0.5,0.6-0.8c0.2-0.2,0.3-0.4,0.5-0.7
	c0.1-0.1,0.1-0.2,0.2-0.3c0.1-0.2,0.3-0.4,0.4-0.6c0.1-0.1,0.1-0.2,0.2-0.3c0.3-0.5,0.6-1,0.9-1.6c0.4-0.8,0.8-1.7,1.1-2.6l0-0.1
	c0.1-0.3,0.2-0.6,0.3-0.9c0.1-0.2,0.1-0.5,0.2-0.7c0.1-0.3,0.1-0.5,0.2-0.7c0.1-0.3,0.1-0.6,0.2-1c0.1-0.3,0.1-0.6,0.2-1
	c0-0.2,0-0.3,0.1-0.5c0.1-0.5,0.1-1.1,0.1-1.6c0-0.1,0-0.2,0-0.4c0-0.2,0-0.3,0-0.5C110.9,70.5,110.9,70.3,110.9,70.1z"/>
<path id="XMLID_11_" fill="#AE4645" d="M95.8,59.1v4.3c-0.1,0-0.3,0.1-0.4,0.1c-0.1,0.1-0.3,0.1-0.5,0.2c0,0-0.1,0-0.1,0
	c0,0-0.1,0-0.1,0c-0.2,0.1-0.3,0.1-0.5,0.2c0,0,0,0,0,0c0,0-0.1,0-0.1,0c0,0,0,0,0,0c0,0-0.1,0-0.1,0c-0.3,0.1-0.6,0.2-0.9,0.2
	c0.2-0.1,0.3-0.3,0.4-0.5c0.1-0.1,0.1-0.1,0.2-0.2c0-0.1,0.1-0.1,0.1-0.2c0.1-0.1,0.2-0.2,0.2-0.3c0.1-0.1,0.2-0.3,0.3-0.4
	c0.1-0.1,0.1-0.2,0.2-0.3c0.1-0.1,0.1-0.2,0.2-0.4c0.1-0.1,0.1-0.2,0.2-0.4c0-0.1,0.1-0.2,0.1-0.3c0-0.1,0.1-0.2,0.1-0.3
	c0-0.1,0.1-0.2,0.1-0.4c0,0,0-0.1,0-0.1c0-0.1,0.1-0.2,0.1-0.3c0,0,0-0.1,0-0.1c0-0.1,0-0.1,0.1-0.2c0.1-0.3,0.1-0.6,0.2-0.7
	C95.8,59.3,95.8,59.1,95.8,59.1z"/>
<g id="XMLID_33_">
	<path id="XMLID_48_" fill="#14BDC9" d="M42,14.7H26.1L6.5,79.1h13.3l4-13.2h20.3l4,13.2h13.5L42,14.7z M27.4,54.3L34,33.1l6.6,21.2
		H27.4z"/>
	<path id="XMLID_46_" fill="#14BDC9" d="M153.8,73.7c-1,0.9-2,1.7-3.1,2.4c-1.1,0.8-2.2,1.4-3.4,2c-1.2,0.6-2.4,1-3.7,1.3
		c-1.3,0.3-2.5,0.5-3.8,0.5c-2.9,0-5.5-0.5-8-1.5c-2.5-1-4.7-2.4-6.6-4.3c-1.9-1.9-3.4-4.1-4.5-6.8c-1.1-2.7-1.6-5.7-1.6-9V32.8
		h11.8v25.6c0,1.6,0.2,2.9,0.7,4.2c0.5,1.2,1.1,2.3,1.9,3.1c0.8,0.8,1.8,1.5,2.8,1.9c1.1,0.4,2.2,0.6,3.5,0.6c1.2,0,2.4-0.3,3.4-0.8
		c1.1-0.6,2-1.3,2.8-2.2c0.8-0.9,1.4-2,1.9-3.1c0.5-1.2,0.7-2.4,0.7-3.6V32.8h11.8v46.3h-2.9L153.8,73.7z"/>
	<path id="XMLID_42_" fill="#14BDC9" d="M211.5,45.7c-1.2-3-2.9-5.6-5.1-7.8c-0.3-0.3-0.5-0.5-0.8-0.8c-0.1-0.1-0.2-0.2-0.3-0.3
		c-0.6-0.5-1.2-0.9-1.8-1.4c-1.3-0.9-2.6-1.7-4-2.3c-1.4-0.7-2.8-1.2-4.3-1.6c-1.5-0.4-3-0.6-4.5-0.6c-3.3,0-6.3,0.6-9.2,1.8
		c-2.9,1.2-5.4,2.9-7.5,5c-2.2,2.2-3.8,4.7-5.1,7.8c-1.2,3-1.9,6.3-1.9,9.9c0,3.9,0.6,7.3,1.9,10.3c1.2,3,2.9,5.6,5.1,7.7
		c2.2,2.1,4.6,3.7,7.5,4.8c2.9,1.1,5.9,1.6,9.2,1.6c1.5,0,3-0.2,4.4-0.6c1.5-0.4,2.9-0.9,4.3-1.5c1.4-0.7,2.7-1.4,4-2.3
		c1.3-0.9,2.4-1.8,3.6-2.8l4.6,6.4h1.8V55.5C213.3,52,212.7,48.7,211.5,45.7z M201.6,60.2c-0.6,1.5-1.5,2.9-2.5,4
		c-1.1,1.2-2.3,2.1-3.7,2.8c-1.4,0.7-3,1.1-4.6,1.1c-1.6,0-3.1-0.3-4.6-0.8c-1.4-0.5-2.7-1.4-3.7-2.4c-1.1-1.1-1.9-2.4-2.5-3.9
		c-0.6-1.6-0.9-3.4-0.9-5.4c0-2,0.3-3.8,0.9-5.4c0.6-1.6,1.4-2.9,2.5-3.9c1-1.1,2.3-1.9,3.7-2.4c1.4-0.6,2.9-0.8,4.6-0.8
		c1.6,0,3.1,0.4,4.6,1.1c1.4,0.7,2.7,1.6,3.7,2.8c1.1,1.2,1.9,2.5,2.5,4c0.6,1.5,0.9,3.1,0.9,4.7C202.5,57.2,202.2,58.7,201.6,60.2z
		"/>
	<path id="XMLID_39_" fill="#14BDC9" d="M269.8,55.5c0,3.6-0.6,6.9-1.9,9.9c-1.2,3-2.9,5.6-5.1,7.7c-2.1,2.1-4.6,3.8-7.5,5
		c-2.9,1.2-5.9,1.8-9.2,1.8c-3.3,0-6.3-0.6-9.2-1.8c-2.9-1.2-5.4-2.9-7.5-5.1c-2.1-2.2-3.8-4.7-5.1-7.7c-1.2-3-1.9-6.3-1.9-9.8V14.4
		h11.9V36c0.6-0.8,1.4-1.5,2.3-2.2c0.9-0.6,1.9-1.2,2.9-1.6c1.1-0.4,2.1-0.7,3.3-0.9c1.1-0.2,2.2-0.3,3.3-0.3c3.3,0,6.4,0.6,9.2,1.8
		c2.9,1.2,5.4,2.9,7.5,5.1c2.1,2.2,3.8,4.8,5.1,7.8C269.2,48.7,269.8,52,269.8,55.5z M257.9,55.5c0-1.8-0.3-3.5-0.9-5
		c-0.6-1.5-1.5-2.9-2.5-4c-1.1-1.1-2.3-2-3.7-2.6c-1.4-0.6-2.9-1-4.6-1c-1.6,0-3.1,0.4-4.6,1.1c-1.4,0.7-2.7,1.6-3.7,2.8
		c-1.1,1.2-1.9,2.5-2.5,4c-0.6,1.5-0.9,3.1-0.9,4.7c0,1.8,0.3,3.4,0.9,5c0.6,1.5,1.4,2.9,2.5,4c1.1,1.1,2.3,2,3.7,2.7
		c1.4,0.6,2.9,1,4.6,1c1.6,0,3.1-0.3,4.6-1c1.4-0.6,2.7-1.5,3.7-2.7c1.1-1.1,1.9-2.4,2.5-4C257.6,59,257.9,57.3,257.9,55.5z"/>
	<path id="XMLID_36_" fill="#14BDC9" d="M290.2,20.2c0,1.1-0.2,2.1-0.6,3.1c-0.4,1-1,1.8-1.7,2.5c-0.7,0.7-1.6,1.3-2.5,1.7
		c-1,0.4-2,0.6-3.1,0.6c-1.1,0-2.1-0.2-3.1-0.6c-1-0.4-1.8-1-2.5-1.7c-0.7-0.7-1.3-1.5-1.7-2.5c-0.4-1-0.6-2-0.6-3.1
		c0-1.1,0.2-2.1,0.6-3c0.4-1,1-1.8,1.7-2.5c0.7-0.7,1.5-1.3,2.5-1.7c1-0.4,2-0.6,3.1-0.6c1.1,0,2.1,0.2,3.1,0.6c1,0.4,1.8,1,2.5,1.7
		c0.7,0.7,1.3,1.5,1.7,2.5C290,18.1,290.2,19.1,290.2,20.2z M288.2,79.1h-11.9V32.8h11.9V79.1z"/>
	<path id="XMLID_34_" fill="#14BDC9" d="M320.4,79.1c-2.9,0-5.5-0.5-8-1.6c-2.5-1.1-4.7-2.6-6.6-4.5c-1.9-1.9-3.4-4.1-4.5-6.6
		c-1.1-2.5-1.6-5.2-1.6-8V44.6H294V32.9h5.8V14.4h11.8v18.5h17.9v11.8h-17.9v13.8c0,1.2,0.2,2.4,0.7,3.5c0.5,1.1,1.1,2,1.9,2.8
		c0.8,0.8,1.8,1.4,2.9,1.9c1.1,0.5,2.3,0.7,3.5,0.7h9v11.8H320.4z"/>
</g>
</svg>
