<?xml version="1.0" encoding="utf-8"?>
<!-- Generator: Adobe Illustrator 19.0.0, SVG Export Plug-In . SVG Version: 6.00 Build 0)  -->
<svg version="1.1" id="Layer_1" xmlns="http://www.w3.org/2000/svg" xmlns:xlink="http://www.w3.org/1999/xlink" x="0px" y="0px"
	 viewBox="0 0 500 200" enable-background="new 0 0 500 200" xml:space="preserve">
<g id="XMLID_1_">
	<linearGradient id="XMLID_3_" gradientUnits="userSpaceOnUse" x1="12.9681" y1="99.54" x2="155.6406" y2="99.54">
		<stop  offset="0" style="stop-color:#EF4136"/>
		<stop  offset="5.835867e-002" style="stop-color:#F04C37"/>
		<stop  offset="0.2175" style="stop-color:#F3653A"/>
		<stop  offset="0.3621" style="stop-color:#F5753C"/>
		<stop  offset="0.4784" style="stop-color:#F67A3D"/>
		<stop  offset="1" style="stop-color:#FBB040"/>
	</linearGradient>
	<path id="XMLID_497_" fill="url(#XMLID_3_)" d="M133.9,77.9c-19.3,0-27.5-7.8-27.9-26.5c0-0.5,0.1-1,0.1-1.6
		c0-12-9.7-21.7-21.7-21.7c-6,0-11.5,2.4-15.4,6.4c-4,3.9-6.4,9.4-6.4,15.4c0,0.5,0,1,0.1,1.5c-0.4,18.6-8.7,26.4-27.9,26.4
		c-12,0-21.7,9.7-21.7,21.7c0,12,9.7,21.7,21.7,21.7c19.8,0,28,8.2,28,28c0,12,9.7,21.7,21.7,21.7c12,0,21.7-9.7,21.7-21.7
		c0-9.4-6-17.4-14.4-20.4c-2.3-0.8-4.8-1.3-7.3-1.3c-8.5,0-14.8-1.5-19.3-4.8c-1.5-1.1-2.7-2.3-3.8-3.8c-4.4-5.2-7-12-7-19.3
		c0-7.4,2.7-14.1,7.1-19.4c1.1-1.5,2.3-2.7,3.8-3.8c5.2-4.3,11.9-7,19.3-7c7.7,0,14.7,2.9,20,7.6c0,0,0.1,0.1,0.1,0.1
		c0.9,0.7,1.7,1.5,2.4,2.4c0,0,0,0,0,0c3.7,4.5,5.4,11.1,5.4,20.1c0,2.6,0.5,5.1,1.3,7.4c3,8.4,11,14.3,20.4,14.3
		c12,0,21.7-9.7,21.7-21.7C155.6,87.6,145.9,77.9,133.9,77.9z"/>
	<linearGradient id="XMLID_4_" gradientUnits="userSpaceOnUse" x1="63.9312" y1="99.54" x2="104.6775" y2="99.54">
		<stop  offset="0" style="stop-color:#EF4136"/>
		<stop  offset="5.835867e-002" style="stop-color:#F04C37"/>
		<stop  offset="0.2175" style="stop-color:#F3653A"/>
		<stop  offset="0.3621" style="stop-color:#F5753C"/>
		<stop  offset="0.4784" style="stop-color:#F67A3D"/>
		<stop  offset="1" style="stop-color:#FBB040"/>
	</linearGradient>
	<circle id="XMLID_866_" fill="url(#XMLID_4_)" cx="84.3" cy="99.5" r="20.4"/>
	<g id="XMLID_16_">
		<g id="XMLID_165_">
			<path id="XMLID_182_" fill="#3CDADD" d="M222.8,123.6l-7.4-18.1h-25.7l-7.5,18.1h-8.3L200,62.3h5.8l25.2,61.4H222.8z M202.8,75
				l-9.6,22.6h19L202.8,75z"/>
			<path id="XMLID_179_" fill="#3CDADD" d="M269.8,138.8v-17.5c-4.1,3.2-9.6,4.8-16.5,4.8c-7.4,0-13.4-2.4-17.8-7.1
				c-4.2-4.5-6.3-10.2-6.3-16.9c0-6.7,2.1-12.3,6.4-16.7c4.5-4.6,10.6-7,18.1-7c6.5,0,11.8,1.7,16.1,5.1v-4.1h8.7v59.5H269.8z
				 M265.4,90.7c-3-3-7-4.4-12.2-4.4c-4.9,0-8.8,1.5-11.5,4.6c-2.5,2.8-3.8,6.6-3.8,11.3c0,4.7,1.3,8.5,4,11.5
				c2.7,3,6.5,4.5,11.4,4.5c11,0,16.6-5.4,16.6-16.1C269.8,97.5,268.3,93.7,265.4,90.7z"/>
			<path id="XMLID_177_" fill="#3CDADD" d="M317.6,123.8v-3.1c-3.9,2.6-8.6,3.9-14.2,3.9c-6.2,0-11.1-1.4-14.8-4.2
				c-4-3-6-7.3-6-12.9V79.5h8.7v28.1c0,6.3,4,9.4,12,9.4c9.5,0,14.2-4.6,14.2-13.7V79.5h8.7v44.3H317.6z"/>
			<path id="XMLID_174_" fill="#3CDADD" d="M370.1,123.7v-4.2c-4.2,3.4-9.7,5.1-16.4,5.1c-7.6,0-13.6-2.3-18.1-6.8
				c-4.2-4.2-6.2-9.6-6.2-16.2c0-6.8,2.1-12.2,6.3-16.5c4.5-4.5,10.6-6.8,18.4-6.8c6.4,0,11.7,1.6,16,4.9v-4.9h8.7v45.3H370.1z
				 M365.9,90.2c-2.8-2.8-6.9-4.2-12.3-4.2c-4.9,0-8.8,1.5-11.7,4.5c-2.6,2.8-3.9,6.5-3.9,11c0,4.5,1.3,8.1,3.9,10.9
				c2.8,3,6.7,4.4,11.7,4.4c5,0,9-1.4,12-4.3c3-2.9,4.5-6.5,4.5-10.9C370.1,96.8,368.7,93,365.9,90.2z"/>
			<path id="XMLID_170_" fill="#3CDADD" d="M424.4,120c-3.7,2.4-8.4,3.6-14.1,3.6H384V62.3h27.3c5.1,0,9.3,1.3,12.7,3.8
				c4.1,3,6.1,7.4,6.1,13.2c0,4.9-2,8.9-6,11.9c5.1,2.9,7.7,7.7,7.7,14.5C431.8,112.1,429.3,116.9,424.4,120z M419.6,72.4
				c-2.2-1.5-5-2.2-8.5-2.2h-19.8v17.6h19.8c3.5,0,6.3-0.8,8.5-2.3c2.2-1.5,3.3-3.7,3.3-6.6C422.9,76,421.8,73.8,419.6,72.4z
				 M420.8,98.1c-2.5-1.6-5.8-2.5-9.9-2.5h-19.6v20.1h19.9c3.9,0,7-0.8,9.4-2.5c2.7-1.8,4-4.3,4-7.5
				C424.5,102.3,423.3,99.8,420.8,98.1z"/>
			<rect id="XMLID_169_" x="436.6" y="80.4" fill="#3CDADD" width="8.7" height="43.2"/>
			<path id="XMLID_167_" fill="#3CDADD" d="M466.9,88.2v35.4h-8.7V88.2h-9v-7.9h9V68.1h8.7v12.3h9.1v7.9H466.9z"/>
			<rect id="XMLID_166_" x="436.7" y="68.1" fill="#3CDADD" width="8.6" height="8.6"/>
		</g>
	</g>
	
		<text id="XMLID_515_" transform="matrix(1 0 0 1 290.7197 138.835)" fill="#FFFFFF" font-family="'FuturaBT-Book'" font-size="13.1033px" letter-spacing="21">DIGITAL</text>
</g>
</svg>
