<?xml version="1.0" encoding="utf-8"?>
<!-- Generator: Adobe Illustrator 16.0.0, SVG Export Plug-In . SVG Version: 6.00 Build 0)  -->
<!DOCTYPE svg PUBLIC "-//W3C//DTD SVG 1.1//EN" "http://www.w3.org/Graphics/SVG/1.1/DTD/svg11.dtd">
<svg version="1.1" id="Layer_1" xmlns="http://www.w3.org/2000/svg" xmlns:xlink="http://www.w3.org/1999/xlink" x="0px" y="0px"
	 width="300px" height="100px" viewBox="0 0 300 100" enable-background="new 0 0 300 100" xml:space="preserve">
<g>
	<g>
		<g>
			<path fill="#0EBCC8" d="M38.342,9.993H24.331L7.088,66.729h11.705l3.543-11.586h17.839l3.543,11.586h11.867L38.342,9.993z
				 M25.47,44.857l5.787-18.706l5.787,18.706H25.47z"/>
			<path fill="#0EBCC8" d="M136.827,61.966c-0.838,0.762-1.733,1.48-2.686,2.152c-0.953,0.674-1.95,1.258-2.991,1.753
				c-1.042,0.495-2.115,0.889-3.22,1.181c-1.105,0.293-2.229,0.438-3.372,0.438c-2.515,0-4.876-0.444-7.086-1.333
				c-2.21-0.89-4.147-2.153-5.811-3.792c-1.664-1.638-2.972-3.632-3.924-5.981c-0.953-2.348-1.429-4.984-1.429-7.906V25.922h10.364
				v22.556c0,1.372,0.209,2.597,0.628,3.676c0.419,1.081,0.984,1.988,1.696,2.725c0.711,0.738,1.543,1.296,2.496,1.677
				c0.952,0.381,1.975,0.571,3.067,0.571c1.067,0,2.077-0.248,3.029-0.743c0.952-0.495,1.784-1.148,2.496-1.962
				c0.711-0.813,1.27-1.733,1.676-2.762c0.406-1.029,0.609-2.09,0.609-3.182V25.922h10.402v40.806h-2.515L136.827,61.966z"/>
			<path fill="#0EBCC8" d="M187.617,37.304c-1.095-2.622-2.578-4.909-4.453-6.838c-0.239-0.239-0.477-0.478-0.727-0.705
				c-0.087-0.087-0.184-0.173-0.281-0.249c-0.521-0.423-1.053-0.835-1.604-1.226c-1.105-0.791-2.275-1.474-3.491-2.059
				c-1.212-0.585-2.48-1.04-3.771-1.377c-1.299-0.324-2.6-0.487-3.922-0.487c-2.873,0-5.571,0.52-8.097,1.583
				c-2.535,1.051-4.735,2.525-6.632,4.432c-1.896,1.908-3.38,4.183-4.477,6.838c-1.095,2.655-1.636,5.571-1.636,8.746
				c0,3.403,0.542,6.437,1.636,9.103c1.097,2.667,2.58,4.92,4.477,6.763s4.097,3.251,6.632,4.217
				c2.525,0.964,5.224,1.441,8.097,1.441c1.322,0,2.623-0.163,3.9-0.487c1.279-0.337,2.536-0.781,3.751-1.355
				c1.224-0.575,2.384-1.246,3.488-2.017c1.107-0.779,2.157-1.615,3.144-2.502l4.043,5.603h1.561V45.931
				C189.254,42.81,188.712,39.937,187.617,37.304z M178.916,50.092c-0.553,1.345-1.302,2.515-2.233,3.545
				c-0.942,1.029-2.039,1.864-3.294,2.481c-1.258,0.617-2.602,0.932-4.021,0.932c-1.431,0-2.765-0.238-4.021-0.727
				c-1.257-0.476-2.354-1.191-3.274-2.134c-0.931-0.934-1.656-2.092-2.199-3.479c-0.531-1.388-0.791-2.97-0.791-4.747
				s0.26-3.36,0.791-4.747c0.543-1.377,1.269-2.548,2.199-3.479c0.921-0.943,2.018-1.659,3.274-2.136
				c1.256-0.487,2.59-0.727,4.021-0.727c1.42,0,2.764,0.314,4.021,0.933c1.255,0.629,2.352,1.452,3.294,2.482
				c0.932,1.03,1.681,2.21,2.233,3.543c0.541,1.333,0.812,2.709,0.812,4.13C179.728,47.383,179.457,48.759,178.916,50.092z"/>
			<path fill="#0EBCC8" d="M238.976,45.963c0,3.2-0.547,6.122-1.639,8.763c-1.093,2.643-2.578,4.91-4.458,6.801
				c-1.879,1.893-4.083,3.359-6.61,4.401c-2.527,1.041-5.239,1.562-8.135,1.562c-2.87,0-5.568-0.533-8.097-1.6
				c-2.527-1.067-4.737-2.554-6.629-4.458c-1.893-1.905-3.385-4.172-4.478-6.801c-1.092-2.629-1.639-5.519-1.639-8.668V9.691h10.44
				v19.051c0.559-0.71,1.238-1.347,2.038-1.906c0.8-0.558,1.664-1.014,2.591-1.371c0.928-0.356,1.886-0.628,2.877-0.819
				c0.99-0.19,1.956-0.286,2.896-0.286c2.896,0,5.607,0.54,8.135,1.619c2.527,1.081,4.731,2.585,6.61,4.515
				c1.88,1.931,3.365,4.21,4.458,6.839C238.429,39.962,238.976,42.839,238.976,45.963z M228.497,45.963
				c0-1.575-0.272-3.042-0.819-4.4c-0.546-1.358-1.289-2.534-2.229-3.524s-2.038-1.765-3.295-2.324
				c-1.258-0.558-2.598-0.838-4.021-0.838c-1.422,0-2.762,0.312-4.02,0.933c-1.257,0.624-2.355,1.448-3.296,2.477
				c-0.939,1.029-1.676,2.209-2.21,3.543c-0.533,1.334-0.8,2.712-0.8,4.134c0,1.576,0.267,3.035,0.8,4.382
				c0.534,1.347,1.271,2.514,2.21,3.505c0.94,0.99,2.039,1.771,3.296,2.343c1.258,0.571,2.598,0.857,4.02,0.857
				c1.423,0,2.763-0.286,4.021-0.857c1.257-0.571,2.355-1.353,3.295-2.343c0.939-0.991,1.683-2.158,2.229-3.505
				C228.225,48.999,228.497,47.539,228.497,45.963z"/>
			<path fill="#0EBCC8" d="M256.997,14.835c0,0.966-0.185,1.867-0.553,2.705c-0.368,0.838-0.87,1.568-1.505,2.19
				c-0.635,0.624-1.378,1.119-2.229,1.486c-0.851,0.369-1.759,0.553-2.724,0.553c-0.966,0-1.873-0.184-2.725-0.553
				c-0.851-0.367-1.587-0.862-2.209-1.486c-0.623-0.623-1.118-1.353-1.486-2.19c-0.369-0.838-0.553-1.739-0.553-2.705
				c0-0.939,0.184-1.834,0.553-2.687c0.368-0.851,0.863-1.586,1.486-2.21c0.622-0.622,1.358-1.118,2.209-1.486
				c0.852-0.367,1.759-0.553,2.725-0.553c0.965,0,1.873,0.186,2.724,0.553c0.852,0.368,1.595,0.864,2.229,1.486
				c0.635,0.624,1.137,1.359,1.505,2.21C256.813,13.001,256.997,13.896,256.997,14.835z M255.206,66.729h-10.478V25.922h10.478
				V66.729z"/>
			<path fill="#0EBCC8" d="M283.591,66.729c-2.515,0-4.877-0.477-7.086-1.429c-2.211-0.953-4.147-2.261-5.812-3.925
				c-1.663-1.662-2.972-3.601-3.924-5.811c-0.952-2.209-1.429-4.571-1.429-7.086V36.362h-5.067V25.999h5.067V9.691h10.363v16.307
				h15.774v10.364h-15.774v12.116c0,1.092,0.203,2.115,0.609,3.067c0.407,0.953,0.966,1.786,1.677,2.496
				c0.711,0.711,1.55,1.276,2.515,1.695s1.994,0.628,3.086,0.628h7.888v10.364H283.591z"/>
		</g>
		<g>
			<g>
				<path fill="#F6921E" d="M96.154,27.329l-4.032,4.833c-0.997-0.89-2.036-1.723-3.141-2.515c-1.107-0.78-2.278-1.463-3.49-2.037
					c-1.226-0.564-2.471-1.02-3.751-1.355c-1.289-0.325-2.589-0.488-3.912-0.488c-2.873,0-5.571,0.51-8.094,1.539
					c-2.525,1.03-4.737,2.482-6.624,4.368c-1.896,1.875-3.391,4.14-4.485,6.795c-1.084,2.655-1.636,5.603-1.636,8.822
					c0,3.197,0.552,6.134,1.636,8.778c1.094,2.656,2.588,4.943,4.485,6.85c1.886,1.897,4.098,3.382,6.624,4.433
					c2.523,1.052,5.222,1.583,8.094,1.583c0.921,0,1.82-0.098,2.73-0.305c0.9-0.205,1.789-0.476,2.667-0.822
					c0.878-0.336,1.723-0.727,2.546-1.16s1.636-0.878,2.428-1.333v21.66c-0.01,0.076-0.021,0.151-0.021,0.228
					c0,2.86,2.341,5.191,5.246,5.191c2.893,0,5.234-2.318,5.245-5.181V27.329H96.154z M87.376,51.431
					c-0.542,1.334-1.289,2.515-2.233,3.544c-0.932,1.02-2.037,1.854-3.294,2.472c-1.257,0.629-2.59,0.932-4.021,0.932
					c-1.42,0-2.762-0.248-4.02-0.736c-1.257-0.499-2.341-1.214-3.274-2.157c-0.921-0.942-1.657-2.102-2.188-3.489
					c-0.531-1.377-0.802-2.948-0.802-4.704c0-1.702,0.271-3.23,0.802-4.595c0.531-1.355,1.268-2.515,2.188-3.479
					c0.934-0.964,2.018-1.713,3.274-2.232c1.258-0.521,2.6-0.781,4.02-0.781c1.431,0,2.764,0.314,4.021,0.933
					c1.257,0.629,2.362,1.452,3.294,2.482c0.944,1.03,1.691,2.21,2.233,3.543c0.542,1.333,0.823,2.709,0.823,4.13
					C88.199,48.711,87.918,50.098,87.376,51.431z"/>
			</g>
		</g>
		<g>
			<path fill="#F1E1DB" d="M98.664,67.49h16.273c0,0-16.273,2.549-16.273,20.426"/>
		</g>
		<path fill="none" stroke="#231F20" stroke-miterlimit="10" d="M111.606,67.49"/>
		<path fill="none" stroke="#231F20" stroke-miterlimit="10" d="M124.351,67.49"/>
	</g>
</g>
</svg>
