<?xml version="1.0" encoding="utf-8"?>
<!-- Generator: Adobe Illustrator 16.0.0, SVG Export Plug-In . SVG Version: 6.00 Build 0)  -->
<!DOCTYPE svg PUBLIC "-//W3C//DTD SVG 1.1//EN" "http://www.w3.org/Graphics/SVG/1.1/DTD/svg11.dtd" [
	<!ENTITY st0 "fill:#4A454A;">
	<!ENTITY st1 "fill:#8081BE;">
	<!ENTITY st2 "fill:#8082BE;">
	<!ENTITY st3 "fill:#84CBDD;">
	<!ENTITY st4 "opacity:0.7;fill:#4A454A;">
	<!ENTITY st5 "fill:#EBD08B;">
	<!ENTITY st6 "fill:none;stroke:#535064;stroke-miterlimit:10;">
	<!ENTITY st7 "fill:#EDBCC4;">
	<!ENTITY st8 "fill:#1F4F6E;">
	<!ENTITY st9 "fill:#EEF1F6;">
	<!ENTITY st10 "fill:#535064;">
	<!ENTITY st11 "fill:#BAB9CD;">
	<!ENTITY st12 "fill:#5AB49A;">
	<!ENTITY st13 "fill:#5D63AC;">
	<!ENTITY st14 "fill:#908FC6;">
	<!ENTITY st15 "fill:#91626B;">
	<!ENTITY st16 "fill:url(#SVGID_9_);">
	<!ENTITY st17 "fill:#FFFFFF;">
	<!ENTITY st18 "fill:#62A48F;">
	<!ENTITY st19 "fill:#378DA7;">
	<!ENTITY st20 "fill:#D0E3F5;">
	<!ENTITY st21 "fill:url(#SVGID_10_);">
	<!ENTITY st22 "fill:url(#SVGID_11_);">
	<!ENTITY st23 "fill:url(#SVGID_12_);">
	<!ENTITY st24 "fill:url(#SVGID_13_);">
	<!ENTITY st25 "fill:url(#SVGID_14_);">
	<!ENTITY st26 "fill:#D88D9C;">
	<!ENTITY st27 "opacity:0.5;fill:url(#SVGID_1_);">
	<!ENTITY st28 "opacity:0.5;fill:url(#SVGID_2_);">
	<!ENTITY st29 "opacity:0.5;fill:url(#SVGID_3_);">
	<!ENTITY st30 "opacity:0.5;fill:url(#SVGID_4_);">
	<!ENTITY st31 "opacity:0.5;fill:url(#SVGID_5_);">
	<!ENTITY st32 "opacity:0.5;fill:url(#SVGID_6_);">
	<!ENTITY st33 "opacity:0.5;fill:url(#SVGID_7_);">
	<!ENTITY st34 "opacity:0.5;fill:url(#SVGID_8_);">
	<!ENTITY st35 "fill:#764650;">
	<!ENTITY st36 "fill:#DFE3EC;">
]>
<svg version="1.1" id="Layer_1" xmlns="http://www.w3.org/2000/svg" xmlns:xlink="http://www.w3.org/1999/xlink" x="0px" y="0px"
	 width="699.07px" height="363.037px" viewBox="0 0 699.07 363.037" style="enable-background:new 0 0 699.07 363.037;"
	 xml:space="preserve">
<g>
	<linearGradient id="SVGID_1_" gradientUnits="userSpaceOnUse" x1="111.5811" y1="276.354" x2="10.0364" y2="344.0506">
		<stop  offset="0" style="stop-color:#5057A5;stop-opacity:0.02"/>
		<stop  offset="1" style="stop-color:#4D57A5;stop-opacity:0.64"/>
	</linearGradient>
	<ellipse style="&st27;" cx="76.856" cy="299.503" rx="31.059" ry="4.337"/>
	<linearGradient id="SVGID_2_" gradientUnits="userSpaceOnUse" x1="682.8398" y1="277.7397" x2="581.2957" y2="345.436">
		<stop  offset="0" style="stop-color:#5057A5;stop-opacity:0.02"/>
		<stop  offset="1" style="stop-color:#4D57A5;stop-opacity:0.64"/>
	</linearGradient>
	<ellipse style="&st28;" cx="648.117" cy="300.889" rx="31.058" ry="4.338"/>
	<g>
		<path style="&st12;" d="M52.765,165.107c0,0-9.639,42.569,5.621,71.485c15.262,28.915,15.262,28.915,15.262,28.915
			S77.662,193.22,52.765,165.107z"/>
		<path style="&st17;" d="M53.415,276.245c0.926,5.22,2.115,10.485,4.699,15.115c2.584,4.631,6.758,8.604,11.908,9.853
			c2.339,0.566,4.771,0.558,7.174,0.493c2.636-0.071,5.392-0.238,7.663-1.578c2.964-1.743,4.517-5.11,5.72-8.33
			c2.037-5.449,3.582-11.082,4.613-16.808c0.594-3.305,0.979-6.889-0.566-9.872c-2.09-4.039-6.987-5.665-11.477-6.396
			c-7.459-1.217-17.735-1.841-24.881,1.197C52.027,262.572,52.403,270.545,53.415,276.245z"/>
		<path style="&st10;" d="M70.335,265.647c5.922,0.347,12.337-0.562,16.064-2.569c0.744-0.401,1.408-0.917,1.055-1.407
			c-0.415-0.581-1.993-0.82-3.367-0.963c-7.116-0.733-14.998-1.066-21.963,0.116C51.917,262.553,64.917,265.332,70.335,265.647z"/>
		<path style="&st18;" d="M67.222,154.666c0,0-4.818,81.124,6.426,110.842C73.647,265.507,80.874,193.22,67.222,154.666z"/>
		<path style="&st12;" d="M72.227,264.917h2.608c3.84-16.061,15.324-68.082,9.252-92.361c0,0-19.275,68.274-14.457,83.534
			C70.808,260.093,71.638,262.916,72.227,264.917z"/>
	</g>
	<g>
		<path style="&st12;" d="M625.388,167.88c0,0-9.639,42.569,5.622,71.484c15.261,28.917,15.261,28.917,15.261,28.917
			S650.287,195.992,625.388,167.88z"/>
		<path style="&st17;" d="M626.038,279.017c0.929,5.221,2.117,10.486,4.699,15.116c2.584,4.63,6.758,8.604,11.91,9.851
			c2.337,0.567,4.77,0.559,7.173,0.495c2.637-0.071,5.393-0.238,7.663-1.576c2.964-1.746,4.517-5.113,5.72-8.332
			c2.037-5.451,3.582-11.082,4.612-16.807c0.594-3.307,0.979-6.89-0.564-9.873c-2.091-4.038-6.989-5.666-11.478-6.397
			c-7.46-1.218-17.734-1.84-24.882,1.198C624.65,265.343,625.025,273.318,626.038,279.017z"/>
		<path style="&st10;" d="M642.959,268.42c5.921,0.347,12.336-0.562,16.063-2.569c0.747-0.401,1.409-0.917,1.058-1.408
			c-0.418-0.58-1.992-0.82-3.369-0.961c-7.116-0.734-14.998-1.067-21.964,0.115C624.543,265.326,637.544,268.104,642.959,268.42z"/>
		<path style="&st18;" d="M639.846,157.439c0,0-4.819,81.123,6.425,110.843C646.271,268.282,653.5,195.992,639.846,157.439z"/>
		<path style="&st12;" d="M644.85,267.687h2.61c3.838-16.059,15.322-68.078,9.253-92.359c0,0-19.276,68.274-14.457,83.535
			C643.432,262.866,644.262,265.688,644.85,267.687z"/>
	</g>
	<linearGradient id="SVGID_3_" gradientUnits="userSpaceOnUse" x1="203.7764" y1="260.8052" x2="-24.997" y2="413.321">
		<stop  offset="0" style="stop-color:#5057A5;stop-opacity:0.02"/>
		<stop  offset="1" style="stop-color:#4D57A5;stop-opacity:0.64"/>
	</linearGradient>
	<ellipse style="&st29;" cx="125.545" cy="312.958" rx="70.019" ry="9.013"/>
	<linearGradient id="SVGID_4_" gradientUnits="userSpaceOnUse" x1="669.6406" y1="267.7358" x2="440.8682" y2="420.251">
		<stop  offset="0" style="stop-color:#5057A5;stop-opacity:0.02"/>
		<stop  offset="1" style="stop-color:#4D57A5;stop-opacity:0.64"/>
	</linearGradient>
	<ellipse style="&st30;" cx="591.409" cy="319.89" rx="70.019" ry="9.012"/>
	<linearGradient id="SVGID_5_" gradientUnits="userSpaceOnUse" x1="364.6113" y1="258.7241" x2="135.8374" y2="411.2403">
		<stop  offset="0" style="stop-color:#5057A5;stop-opacity:0.02"/>
		<stop  offset="1" style="stop-color:#4D57A5;stop-opacity:0.64"/>
	</linearGradient>
	<ellipse style="&st31;" cx="286.38" cy="310.877" rx="70.019" ry="9.012"/>
	<linearGradient id="SVGID_6_" gradientUnits="userSpaceOnUse" x1="549.0146" y1="255.9497" x2="320.2427" y2="408.4646">
		<stop  offset="0" style="stop-color:#5057A5;stop-opacity:0.02"/>
		<stop  offset="1" style="stop-color:#4D57A5;stop-opacity:0.64"/>
	</linearGradient>
	<ellipse style="&st32;" cx="470.784" cy="308.104" rx="70.018" ry="9.012"/>
	<linearGradient id="SVGID_7_" gradientUnits="userSpaceOnUse" x1="407.5059" y1="261.6626" x2="269.9431" y2="353.3713">
		<stop  offset="0" style="stop-color:#5057A5;stop-opacity:0.02"/>
		<stop  offset="1" style="stop-color:#4D57A5;stop-opacity:0.64"/>
	</linearGradient>
	<ellipse style="&st33;" cx="360.466" cy="293.024" rx="41.825" ry="9.011"/>
	<path style="&st36;" d="M138.04,71.504l26.418,4.284l-12.57-11.478l6.01-6.702l22.848,20.436c3.151,3.309,0.904,8.786-3.663,8.929
		l-32.009,0.999L138.04,71.504z"/>
	<polygon style="&st19;" points="149.074,139.211 148.548,311.665 139.473,312.312 133.172,166.004 124.747,166.652 116.14,311.016 
		107.067,310.369 108.212,136.089 	"/>
	<path style="&st36;" d="M138.04,71.504l-30.51-1.284c-3.154-0.133-6.193,1.198-8.232,3.608l8.914,69.862l41.701,0.839
		l-3.809-64.036C146.104,80.493,139.15,71.55,138.04,71.504z"/>
	<path style="&st17;" d="M151.786,58.121c-1.675,1.331-3.809,2.562-4.145,4.674c-0.291,1.827,1.056,3.648,2.783,4.312
		c1.729,0.66,3.704,0.342,5.394-0.413c2.722-1.217,4.968-3.685,5.471-6.627c0.365-2.154-0.596-6.296-3.098-7.052
		C155.354,52.159,153.844,56.491,151.786,58.121z"/>
	<polygon style="&st8;" points="107.067,310.369 89.413,315.64 90.061,317.152 115.745,314.345 116.14,311.016 	"/>
	<path style="&st7;" d="M50.001,72.044l-2.798-4.759l3.076-6.435c0,0,1.681-4.478,1.681-5.878c0-1.399-1.399-3.358-2.798-0.841
		c-1.4,2.519-2.799,4.478-2.799,4.478l-8.298-12.312c-0.237-0.351-0.63-0.561-1.054-0.561l0,0c-0.959,0-1.572,1.024-1.117,1.87
		l1.897,3.532c0.63,1.174-0.74,2.402-1.837,1.647l-0.382-0.263c-2.088-1.436-4.944-0.935-6.418,1.127l-0.144,0.202l0.14,4.186
		c0.091,2.687,1.328,5.2,3.405,6.905c4.898,4.021,13.606,11.06,13.808,10.458C46.644,74.563,50.001,72.044,50.001,72.044z"/>
	<path style="&st7;" d="M144.672,44.561c-1.145-0.566-2.637-0.019-3.356,1.041c-0.718,1.056-0.744,2.475-0.318,3.68
		c0.797,2.248,3.242,3.845,5.602,3.491c2.358-0.353,4.268-2.754,3.921-5.113c-0.25-1.691-1.547-3.134-3.143-3.754
		c-1.593-0.62-3.425-0.473-4.999,0.196"/>
	<path style="&st7;" d="M144.068,47.21l13.729,10.787c0,0,0.327,5.884-2.942,6.537c-0.981,0.654-13.729-12.749-13.729-12.749
		L144.068,47.21z"/>
	<path style="&st8;" d="M139.473,312.312l0.446,2.897l22.231,3.669c0,0,1.08-1.727,0.432-1.942
		c-0.647-0.215-14.034-5.271-14.034-5.271L139.473,312.312z"/>
	<path style="&st7;" d="M117.778,56.747l0.701,19.009c0,2.206,1.604,4.085,3.783,4.428l0,0c2.488,0.395,4.813-1.34,5.145-3.838
		l0.963-16.437L117.778,56.747z"/>
	<g>
		
			<rect x="134.343" y="39.875" transform="matrix(0.9831 0.183 -0.183 0.9831 11.5396 -24.6332)" style="&st10;" width="9.803" height="20.671"/>
		
			<rect x="134.352" y="39.775" transform="matrix(0.9831 0.1828 -0.1828 0.9831 11.4996 -24.5155)" style="&st10;" width="8.717" height="20.671"/>
	</g>
	<path style="&st17;" d="M116.678,72.968c0,0-1.391,1.191-1.491,1.591c-0.098,0.396,5.364,8.938,5.364,8.938l3.677-5.861l4.57,5.861
		l1.887-10.629l-3.079-0.697l-3.478,3.975l-6.16-4.968L116.678,72.968z"/>
	<polygon style="&st14;" points="124.228,77.637 121.942,81.413 123.532,84.294 122.639,86.48 123.532,114.497 126.711,118.075 
		129.593,114.697 126.612,86.382 124.925,84.096 127.011,81.214 	"/>
	<path style="&st7;" d="M109.853,36.414c-1.927,4.456-1.712,9.564-0.697,14.312c1.104,5.157,3.263,10.334,7.349,13.67
		c4.086,3.334,10.425,4.281,14.634,1.104c2.51-1.892,3.925-4.893,4.879-7.887c1.898-5.953,2.285-12.609-0.186-18.348
		C131.296,28.739,115.267,23.905,109.853,36.414z"/>
	<polygon style="&st36;" points="103.034,93.903 70.277,104.479 46.475,78.545 52.407,73.645 74.35,91.634 99.298,73.828 
		103.55,81.267 	"/>
	<polygon style="&st17;" points="42.726,76.802 45.243,80.72 56.438,74.284 51.96,69.805 	"/>
	<path style="&st7;" d="M104.247,44.854c-1.414,0.622-2.107,2.329-1.951,3.867c0.155,1.535,0.996,2.917,1.943,4.136
		c0.522,0.678,1.1,1.334,1.826,1.784c0.707,0.436,1.528,0.658,2.354,0.768c1.012,0.133,2.202,0.026,2.794-0.806
		c0.312-0.438,0.392-0.995,0.457-1.53c0.308-2.531-0.347-3.535-1.811-5.37C108.516,46.02,106.749,43.753,104.247,44.854z"/>
	<path style="&st10;" d="M113.615,45.026c-0.212,2.644-1.464,5.35-3.785,6.635c-1.729-2.217-2.644-4.995-2.95-7.791
		c-0.381-3.458,0.182-7.13,2.201-9.959c2.307-3.229,6.285-4.998,10.243-5.284c3.958-0.288,7.906,0.76,11.579,2.265
		c1.592,0.653,3.633,1.319,4.844,0.098c0.634,1.193,0.975,2.542,0.98,3.894c0.004,1.037-0.197,2.103-0.772,2.967
		c-0.972,1.457-2.546,3.083-4.253,3.465c-12.921,2.886-18.926-4.127-18.984-3.934c-0.211,0.69,0.204,1.553,0.363,2.255
		C113.482,41.402,113.76,43.212,113.615,45.026z"/>
	<path style="&st5;" d="M303.677,189.967l-3.67-71.502c0,0-18.382-1.102-23.854-1.102c-2.979,0-8.07,1.415-12.09,2.701
		c-3.774,1.212-6.912,1.104-8.747,4.619l-30.148,57.787l18.525,1.763l6.173-7.056l-3.141-4.762l11.262-26.563l-0.182,44.997
		L303.677,189.967z"/>
	<linearGradient id="SVGID_8_" gradientUnits="userSpaceOnUse" x1="237.6025" y1="157.0972" x2="257.9863" y2="157.0972">
		<stop  offset="0" style="stop-color:#EBD08B;stop-opacity:0"/>
		<stop  offset="1" style="stop-color:#535064;stop-opacity:0.7"/>
	</linearGradient>
	<path style="&st34;" d="M257.589,135.318l-19.986,36.105l6.225,7.29c0,0,2.528,0.509,4.935-0.271l1.104-1.265l-3.141-4.762
		l11.262-26.563L257.589,135.318z"/>
	<path style="&st15;" d="M273.523,175.51c-0.774-0.257-6.961-3.867-11.602-3.867s-10.313,4.899-10.313,4.899
		s-0.773,2.578,2.321,2.063c3.092-0.516,5.155-0.774,5.155-0.774s-5.415,2.836-1.804,3.353c3.608,0.516,18.82,0,18.82,0
		L273.523,175.51z"/>
	<path style="&st13;" d="M272.385,186h-59.568v-4.368h59.568c1.205,0,2.185,0.978,2.185,2.185l0,0
		C274.569,185.022,273.59,186,272.385,186z"/>
	<path style="&st2;" d="M256.041,186h-57.44c-2.54,0-4.764-1.709-5.415-4.165l-10.136-38.195c-0.945-3.555,1.734-7.04,5.413-7.04
		h50.157c2.542,0,4.764,1.71,5.414,4.165L256.041,186z"/>
	<linearGradient id="SVGID_9_" gradientUnits="userSpaceOnUse" x1="182.8584" y1="160.6694" x2="229.9932" y2="160.6694">
		<stop  offset="0" style="stop-color:#4F56A4;stop-opacity:0"/>
		<stop  offset="1" style="stop-color:#4D57A5;stop-opacity:0.5018"/>
	</linearGradient>
	<path style="&st16;" d="M188.463,136.599c-3.679,0-6.358,3.485-5.413,7.04l10.136,38.195c0.313,1.177,0.995,2.177,1.892,2.905
		l34.916-48.141H188.463z"/>
	<path style="&st17;" d="M222.213,164.682c0.631,2.491-0.938,4.51-3.501,4.51s-5.151-2.019-5.78-4.51
		c-0.629-2.492,0.938-4.512,3.502-4.512S221.586,162.19,222.213,164.682z"/>
	<path style="&st15;" d="M274.298,108.473c0.515,1.03,4.125,15.212,4.125,15.212s1.289,2.32,4.383,2.063
		c3.095-0.259,4.384-4.643,4.384-4.643l-5.414-17.791L274.298,108.473z"/>
	<path style="&st15;" d="M293.381,99.74c0,9.769-10.372,20.579-20.141,20.579c-9.77,0-15.233-10.811-15.233-20.579
		c0-9.77,7.917-17.688,17.686-17.688S293.381,89.97,293.381,99.74z"/>
	<path style="&st17;" d="M277.134,119.303l-2.063,5.413l1.29,5.674l4.126-5.932l4.124,6.704l4.643-8.251l-3.095-5.414
		c0,0-1.548,3.608-4.899,4.384C277.906,122.654,277.134,119.303,277.134,119.303z"/>
	<polygon style="&st2;" points="280.486,124.458 277.391,128.327 278.938,130.646 276.619,135.545 277.134,167.775 280.227,174.222 
		284.61,167.002 283.579,136.32 281.259,130.39 283.065,127.81 	"/>
	<linearGradient id="SVGID_10_" gradientUnits="userSpaceOnUse" x1="248.5078" y1="183.105" x2="348.9783" y2="143.3646">
		<stop  offset="0" style="stop-color:#EBD08B;stop-opacity:0"/>
		<stop  offset="1" style="stop-color:#535064;stop-opacity:0.7"/>
	</linearGradient>
	<polygon style="&st21;" points="302.184,133.385 303.304,189.918 276.716,189.637 	"/>
	<path style="&st5;" d="M300.007,118.465l2.452,53.281l-24.622,5.016l3.357,6.438l35.245,2.05l-4.813-52.7
		c-0.497-5.431-3.778-10.214-8.67-12.627L300.007,118.465z"/>
	<polygon style="&st17;" points="273.523,175.51 278.423,176.026 282.806,183.245 274.569,183.816 	"/>
	<path style="&st19;" d="M248.973,199.627l-43.58,11.089l22.171,87.161l7.648-3.823l-6.501-74.929l38.995-12.235l-22.556,13
		l0.383,71.107h6.88c0,0,19.116-69.578,21.026-69.578c1.912,0,34.023-21.409,34.023-21.409L248.973,199.627z"/>
	<polygon style="&st19;" points="204.113,304.741 234.42,302.585 235.252,293.037 202.857,300.41 	"/>
	<polygon style="&st19;" points="228.711,310.111 234.829,310.875 252.032,304.377 252.413,290.998 245.533,290.998 
		242.475,299.407 233.202,305.008 	"/>
	<path style="&st0;" d="M257.391,93.451c-0.69,1.271-1.399,2.753-0.884,4.104c0.629,1.652,2.686,2.157,4.44,2.362
		c3.032,0.356,6.086,0.514,9.139,0.473c2.023-0.027,4.058-0.144,6.03-0.604c3.223-0.755,6.157-2.402,9.041-4.03
		c2.057-1.161,4.33-2.623,4.703-4.952c0.371-2.313-1.305-4.4-2.871-6.142c-0.889-0.988-1.784-1.983-2.855-2.771
		c-2.617-1.924-6.091-2.424-9.296-1.909C266.874,81.267,261.11,86.633,257.391,93.451z"/>
	<path style="&st0;" d="M286.331,99.176c0.275-0.932,1.443-1.415,2.366-1.109c0.924,0.305,1.548,1.232,1.693,2.193
		c0.146,0.96-0.128,1.944-0.553,2.818c-0.205,0.427-0.449,0.842-0.561,1.303c-0.094,0.387-0.087,0.789-0.08,1.187
		c0.027,1.729,0.056,3.456,0.085,5.186c1.425-0.543,2.259-1.997,2.978-3.344c1.576-2.957,3.199-6.107,3.015-9.456
		c-0.151-2.771-1.529-5.311-2.927-7.709c-0.302-0.516-0.618-1.046-1.105-1.389c-0.693-0.485-1.63-0.507-2.44-0.262
		c-0.811,0.248-1.524,0.73-2.223,1.207c-0.687,0.468-1.373,0.938-2.059,1.406c-0.668,0.455-1.366,0.94-1.726,1.664
		c-0.653,1.307,0.256,1.86,1.02,2.653C284.202,95.924,283.517,104.515,286.331,99.176z"/>
	<g>
		<path style="&st9;" d="M260.329,113.975c-2.34,0-4.949-1.987-5.819-4.432c-0.461-1.299-0.367-2.556,0.261-3.447
			c0.556-0.784,1.468-1.218,2.569-1.218c2.339,0,4.949,1.987,5.817,4.433c0.463,1.3,0.368,2.557-0.262,3.445
			C262.343,113.542,261.43,113.975,260.329,113.975z M257.34,105.574c-0.868,0-1.581,0.327-2.003,0.923
			c-0.495,0.703-0.561,1.729-0.173,2.814c0.778,2.189,3.097,3.972,5.165,3.972c0.868,0,1.58-0.329,2-0.926
			c0.498-0.701,0.561-1.729,0.176-2.813C261.727,107.353,259.408,105.574,257.34,105.574z"/>
	</g>
	<g>
		<path style="&st9;" d="M272.059,113.975c-2.339,0-4.949-1.987-5.817-4.432c-0.463-1.299-0.368-2.556,0.26-3.447
			c0.556-0.784,1.467-1.218,2.569-1.218c2.34,0,4.949,1.987,5.818,4.433c0.461,1.3,0.366,2.557-0.261,3.445
			C274.072,113.542,273.16,113.975,272.059,113.975z M269.07,105.574c-0.87,0-1.582,0.327-2.003,0.923
			c-0.497,0.703-0.559,1.729-0.175,2.814c0.781,2.189,3.098,3.972,5.166,3.972c0.87,0,1.582-0.329,2.003-0.926
			c0.495-0.701,0.56-1.729,0.173-2.813C273.456,107.353,271.141,105.574,269.07,105.574z"/>
	</g>
	<g>
		<path style="&st10;" d="M336.688,72.11c0.185,2.778,1.707,5.541,0.938,8.215c-0.627,2.194-2.672,3.76-3.303,5.952
			c-0.717,2.489,0.547,5.072,1.77,7.353c1.025,1.909,2.457,4.078,4.625,4.088c0.946,0.006,1.833-0.429,2.68-0.854
			c2.061-1.035,4.123-2.066,6.183-3.102c0.893-0.446,1.795-0.901,2.517-1.59c1.07-1.027,1.626-2.463,2.133-3.857
			c1.587-4.367,3.006-8.942,2.639-13.574c-0.365-4.631-2.899-9.365-7.216-11.084c-2.415-0.962-9.483-1.82-11.558,0.249
			c-0.924,0.921-0.463,1.901-0.579,3.073C337.34,68.741,336.568,70.288,336.688,72.11z"/>
		<path style="&st7;" d="M341.694,85.985l-2.104,0.575c-8.753,5.697-13.875,13.615-14.979,24.003l-4.461,72.263l6.709-3.001
			L341.694,85.985z"/>
		<path style="&st2;" d="M385.963,85.436l-35.744-1.457c-3.022-0.123-8.341,0.954-11.236,1.821l-4.555,2.125l8.021,38.292h-0.003
			c-7.3,12.38-10.947,26.574-10.515,40.94l4.242,52.214h40.066l5.104-55.072c0.432-11.275-1.65-22.508-6.095-32.878l-2.18-5.088
			L385.963,85.436z"/>
		<linearGradient id="SVGID_11_" gradientUnits="userSpaceOnUse" x1="348.1426" y1="119.48" x2="366.9673" y2="69.6854">
			<stop  offset="0" style="stop-color:#4F56A4;stop-opacity:0"/>
			<stop  offset="1" style="stop-color:#4D57A5;stop-opacity:0.5018"/>
		</linearGradient>
		<path style="&st22;" d="M343.023,100.8c0.967,1.825,2.326,3.487,4.104,4.537c2.381,1.413,5.341,1.61,8.049,1.04
			c2.711-0.571,5.219-1.851,7.607-3.253c4.305-2.523,8.398-5.533,11.532-9.417c2.201-2.73,3.91-6.623,2.121-9.642
			c-1.145-1.934-3.407-2.89-5.578-3.473C359.253,77.473,334.16,84.086,343.023,100.8z"/>
		<path style="&st7;" d="M370.577,66.785c0,9.5-10.13,22.4-19.631,22.4c-9.499,0-14.772-12.899-14.772-22.4
			c0-9.501,7.703-17.202,17.201-17.202C362.875,49.583,370.577,57.284,370.577,66.785z"/>
		<path style="&st7;" d="M385.963,85.436l24.793,32.317c2.599,3.386,1.69,8.277-1.95,10.507l-28.985,17.731l-3.58-5.589
			l19.885-15.94c1.445-1.159,1.75-3.237,0.698-4.763l-15.08-21.369L385.963,85.436z"/>
		<path style="&st7;" d="M306.435,186.013h15.567c2.492,0,4.56-1.928,4.732-4.412l0.124-1.776L306.435,186.013z"/>
		<path style="&st7;" d="M348.742,78.35c-0.23-0.574,4.11,11.353,4.11,11.353s0.978,4.892,5.088,3.719
			c4.109-1.173,1.566-18.593,0.979-18.789C358.33,74.436,349.133,79.329,348.742,78.35z"/>
		<path style="&st10;" d="M358.945,64.523c-7.962,4.849-16.342,9.83-25.646,10.398c2.095-2.597,1.673-6.311,2.058-9.625
			c0.629-5.424,3.833-10.493,8.464-13.385c4.631-2.894,10.591-3.551,15.741-1.735c1.924,0.676,3.789,1.729,4.977,3.387
			C367.962,58.342,362.643,62.272,358.945,64.523z"/>
		<path style="&st10;" d="M358.224,83.619c0.53,2.556,2.153,4.821,2.446,7.416c0.188,1.684-0.2,3.374-0.586,5.023
			c-0.466,1.994-0.934,3.987-1.399,5.98c2.769-0.549,5.294-1.999,7.501-3.758c7.97-6.347,12.086-17.192,10.336-27.229
			c-0.5-2.862-1.434-5.631-2.457-8.354c-0.787-2.097-1.649-4.212-3.063-5.951c-1.412-1.74-3.469-3.084-5.71-3.142
			c-2.677-0.068-5.113,1.697-6.685,3.868c-1.07,1.479-1.854,3.241-1.818,5.067c0.038,1.827,0.675,8.042,2.35,8.774
			c2.117-1.286,5.288-0.146,6.108,2.188c1.295,3.689-2.006,4.395-4.21,5.658C358.3,80.733,357.63,80.762,358.224,83.619z"/>
		<path style="&st10;" d="M376.497,72.404c1.688,1.268,3.612,2.239,5.099,3.739c1.484,1.499,2.473,3.773,1.687,5.732
			c-0.494,1.233-1.583,2.105-2.521,3.046c-0.939,0.942-1.809,2.155-1.657,3.474c0.1,0.875,0.629,1.63,1.115,2.362
			c1.267,1.917,2.36,4.164,1.983,6.429c-0.302,1.825-1.572,3.419-3.194,4.31c-1.621,0.893-3.557,1.125-5.387,0.856
			c-1.065-0.154-2.117-0.471-3.191-0.425c-2.832,0.122-5.06,2.684-7.877,3.015c-1.595,0.188-3.266-0.417-4.371-1.584
			c-1.105-1.167-1.621-2.867-1.35-4.45c0.447-2.594,2.716-4.417,4.804-6.015c2.088-1.601,4.32-3.507,4.628-6.119
			c0.23-1.95-0.689-3.901-0.45-5.85c0.346-2.795,2.94-4.84,3.566-7.585c0.356-1.56-0.213-5.502,2.232-5.452
			C373.482,67.925,375.111,71.361,376.497,72.404z"/>
		<path style="&st10;" d="M355.955,69.288c-0.504,0.944-1.148,1.807-1.789,2.663c-0.904,1.209-1.807,2.417-2.711,3.628
			c0.654-2.322,0.871-4.766,0.641-7.168c-0.035-0.367-0.08-0.741,0.008-1.1c0.168-0.679,0.769-1.149,1.35-1.534
			c0.831-0.55,2.963-2.327,3.807-1.184C357.924,65.489,356.401,68.455,355.955,69.288z"/>
	</g>
	<g>
		<polygon style="&st10;" points="376.925,135.147 375.288,136.599 380.978,143.25 		"/>
		<path style="&st26;" d="M497.786,189.967l-3.669-71.502c0,0-18.385-3.874-23.855-3.874c-2.979,0-8.072,1.414-12.09,2.703
			c-3.775,1.207-6.913,3.875-8.747,7.39l-30.148,57.787l18.524,1.763l6.174-7.056l-3.14-4.762l11.263-26.563l-0.184,44.997
			L497.786,189.967z"/>
		<path style="&st7;" d="M495.326,97.77c0,9.769-7.919,17.689-17.688,17.689c-5.406,0-9.156-5.612-12.4-9.438
			c-2.619-3.084-4.681-3.958-4.681-8.319c0-9.769,7.313-17.621,17.081-17.621S495.326,88.001,495.326,97.77z"/>
		<polygon style="&st10;" points="450.15,186 388.399,186 375.288,136.599 437.04,136.599 		"/>
		<polygon style="&st17;" points="450.15,186 390.328,186 376.925,135.147 437.448,136.599 		"/>
		<rect x="388.9" y="182.418" style="&st10;" width="42.338" height="3.581"/>
		<linearGradient id="SVGID_12_" gradientUnits="userSpaceOnUse" x1="451.9141" y1="159.5464" x2="496.5752" y2="159.5464">
			<stop  offset="0" style="stop-color:#B6587B;stop-opacity:0"/>
			<stop  offset="1" style="stop-color:#C45771"/>
		</linearGradient>
		<path style="&st23;" d="M472.914,177.678l23.661-11.304l-1.958-38.133l-4.092,0.247l-30.668,32.187c0,0-4.573,11.939-7.907,21.345
			l-0.036,8.83l31.802-0.611L472.914,177.678z"/>
		<polygon style="&st2;" points="433.706,174.579 400.752,174.579 393.369,146.567 426.707,147.367 		"/>
		<path style="&st14;" d="M443.083,199.627l-43.581,11.089l22.173,87.161l7.646-3.823l-6.499-74.929l38.993-12.235l-22.555,13
			l0.381,71.107h6.882c0,0,19.115-69.578,21.025-69.578c1.913,0,34.025-21.409,34.025-21.409L443.083,199.627z"/>
		<polygon style="&st10;" points="398.223,304.741 428.531,302.585 429.363,293.037 396.968,300.41 		"/>
		<path style="&st9;" d="M466.506,122.058c0.273,3.429,0.916,6.828,1.912,10.119c0.221,0.725,0.486,1.488,1.084,1.953
			c1.226,0.959,3.005,0.154,4.28-0.736c2.224-1.551,4.292-3.343,6.022-5.434c1.108-1.341,2.098-2.853,2.438-4.561
			s-0.073-3.648-1.393-4.787c-2.039-1.76-6.429-1.697-8.995-1.755C468.245,116.774,466.202,118.264,466.506,122.058z"/>
		<polygon style="&st10;" points="422.822,310.111 428.938,310.875 446.142,304.377 446.523,290.998 439.642,290.998 
			436.583,299.407 427.311,305.008 		"/>
		<path style="&st7;" d="M470.981,106.689l-1.309,14.907c0,0,1.048,6.276,4.71,5.231c3.66-1.046,4.185-3.923,4.185-3.923
			l1.569-17.786L470.981,106.689z"/>
		<path style="&st0;" d="M484.225,92.039c2.783-0.112,5.647-0.305,8.16-1.514c2.51-1.208,4.612-3.677,4.565-6.463
			c-0.045-2.786-2.922-5.412-5.571-4.551c-0.604,0.197-1.156,0.544-1.774,0.69c-0.965,0.225-1.965-0.068-2.913-0.348
			c-7.151-2.109-15.154-3.511-21.832-0.195c-1.24,0.617-2.452,1.438-3.105,2.661c-0.507,0.952-0.628,2.059-0.727,3.131
			c-0.264,2.891-0.438,5.786-0.521,8.686c1.932-1.048,3.854-2.293,5.864-3.181c1.964-0.867,3.224-0.008,5.313,0.424
			C475.8,92.234,480.045,92.206,484.225,92.039z"/>
		<path style="&st4;" d="M467.613,87.31c-1.82-0.334-3.744,0.255-5.166,1.435c-1.329,2.232-2.187,4.775-2.42,7.503
			c0.169,0.961,0.383,1.926,0.357,2.842c-0.016,0.583,0.225,1.472,0.601,2.465c1.015,1.533,2.642,2.57,4.253,4.467
			c0.064,0.076,0.131,0.159,0.198,0.237c1.712-2.959,4.503-9.707,5.022-10.386c0.799-1.037,3.37-4.157,2.906-5.54
			C472.921,89.006,468.881,87.542,467.613,87.31z"/>
		<path style="&st7;" d="M467.635,94.514c-0.137-0.203-0.284-0.407-0.496-0.53c-0.261-0.15-0.575-0.154-0.874-0.154
			c-1.164,0-2.503,0.084-3.203,1.013c-0.297,0.395-0.427,0.887-0.522,1.37c-0.225,1.153-0.279,2.341-0.16,3.511
			c0.182,1.799,1.048,3.818,2.809,4.225c1.049,0.241,2.174-0.185,2.969-0.908C470.924,100.524,469.446,97.187,467.635,94.514z"/>
		<path style="&st0;" d="M489.994,103.759c0.906-0.213,1.854-0.4,2.759-0.189c0.906,0.215,1.759,0.938,1.818,1.866
			c0.028,0.454-0.126,0.896-0.203,1.344c-0.232,1.392,0.325,2.778,0.81,4.104c1.059,2.894,1.758,6.35,0.003,8.883
			c-1.652,2.382-4.901,3.044-7.797,2.911c-8.594-0.393-16.634-6.537-19.268-14.726c-0.919-2.854-1.217-5.993-0.284-8.844
			c0.283-0.867,1.02-1.86,1.88-1.562c0.499,3.321,2.667,6.345,5.651,7.881C480.639,108.146,484.912,104.943,489.994,103.759z"/>
		<g>
			<path style="&st10;" d="M378.23,136.178l58.438,1.402L448.86,185h-57.762L378.23,136.178 M376.925,135.147L390.328,186h59.822
				l-12.702-49.4L376.925,135.147L376.925,135.147z"/>
		</g>
		<path style="&st17;" d="M473.82,186H388.9v-3.581h84.92c0.987,0,1.788,0.802,1.788,1.792l0,0
			C475.608,185.198,474.808,186,473.82,186z"/>
		<path style="&st13;" d="M430.834,186H388.9v-3.581h41.934c0.99,0,1.791,0.802,1.791,1.792l0,0
			C432.625,185.198,431.824,186,430.834,186z"/>
		<path style="&st26;" d="M494.117,118.465l-15.445,40.829l-39.389,5.243l1.552,7.879l50.406-1.646l13.612-35.898
			c0.673-1.769,0.805-3.722,0.248-5.529c-1.258-4.065-4.138-7.497-8.037-9.421L494.117,118.465z"/>
		<path style="&st7;" d="M439.283,164.538l-21.243-11.349c0,0-1.142,1.691,0.537,3.092c1.679,1.399,7.058,5.377,7.058,5.377v3.092
			c1.774,5.8,7.25,8.539,13.279,7.877l1.921-0.21L439.283,164.538z"/>
	</g>
	<path style="&st35;" d="M525.828,185.912h-25.369c0,0-0.734-1.838,3.312-2.573c4.043-0.735,15.438-1.103,15.438-1.103l2.942-3.311
		l4.045,1.104L525.828,185.912z"/>
	<path style="&st1;" d="M546.658,108.372l-27.036,72.953l6.674,1.667l41.533-71.092c0,0-1.192-4.604-8.249-9.017
		C552.522,98.473,546.658,108.372,546.658,108.372z"/>
	<path style="&st15;" d="M547.401,74.935c-5.274-8.229-16.22-10.625-24.45-5.351c-4.61,2.956-7.566,8.236-8.1,13.642
		c-0.27,2.742-0.283,3.701,0.827,6.233c1.128,2.57,4.231,6.083,2.452,11.188c-0.415,1.194-0.068,3.024,1.325,3.581
		c1.388,0.552,2.606-0.954,3.952-1.017c2.55-0.116,7.564,3.791,9.389,5.33c0.782,0.661,1.625,1.346,2.639,1.477
		c0.868,0.11,1.734-0.208,2.513-0.612c3.885-2.015,6.251-6.044,8.19-9.964c1.816-3.669,3.451-7.553,3.726-11.617
		C550.692,83.523,549.95,78.913,547.401,74.935z"/>
	<path style="&st15;" d="M546.731,109.136c0.747,0.769,1.683,1.578,2.741,1.421c0.488-0.073,0.92-0.346,1.325-0.628
		c1.081-0.751,2.088-1.61,3.003-2.559c0.555-0.574,1.104-1.255,1.12-2.053c0.009-0.453-0.157-0.888-0.341-1.3
		c-1.789-4.029-5.458-7.099-6.754-11.316c-0.586-1.909-0.648-3.958-1.304-5.845c-0.656-1.889-2.179-3.713-4.175-3.792
		c-1.182-0.046-2.303,0.526-3.249,1.233c-3.081,2.299-4.858,6.242-4.537,10.075c0.292,3.478,2.288,6.664,5.143,8.627
		C542.433,104.877,544.384,106.726,546.731,109.136z"/>
	<path style="&st0;" d="M522.951,69.583c-3.28,2.103-5.702,5.391-7.028,9.054c3.392,1.677,12.044-2.048,14.394-3.467
		c-0.259,5.942,2.974,11.913,8.096,14.945c3.107,1.84,6.774,2.644,9.884,4.43c0.813-2.178,1.414-4.419,1.568-6.722
		c0.828-4.3,0.086-8.91-2.463-12.889C542.127,66.705,531.182,64.31,522.951,69.583z"/>
	<path style="&st15;" d="M532.438,87.53c-0.994-1.833-0.004-4.361,1.867-5.29c1.868-0.926,4.274-0.357,5.766,1.107
		c1.488,1.461,2.117,3.655,1.972,5.739c-0.187,2.63-2.101,5.472-4.736,5.334c-1.449-0.074-2.729-1.05-3.541-2.254
		c-0.811-1.206-1.229-2.623-1.636-4.017"/>
	<polygon style="&st17;" points="556.443,100.003 551.398,94.147 543.427,108.789 546.355,118.061 556.93,106.186 	"/>
	<path style="&st14;" d="M562.206,100.802l47.333,52.685l-28.984,25.454l-35.501-54.534c-3.626-5.225,1.922-16.744,5.547-21.969l0,0
		C553.254,98.615,558.6,97.861,562.206,100.802z"/>
	<polygon style="&st3;" points="607.898,315.042 595.175,243.339 580.555,178.941 609.539,153.487 607.88,242.533 614.954,311.514 	
		"/>
	<polygon style="&st20;" points="609.539,153.487 585.68,317.326 578.438,316.15 580.555,178.941 	"/>
	<polygon style="&st20;" points="565.169,322.537 584.287,321.8 585.39,315.917 579.875,315.183 561.492,320.331 561.86,322.905 	
		"/>
	<polygon style="&st19;" points="614.954,311.514 615.508,317.05 593.392,318.419 593.195,316.657 612.767,310.394 	"/>
	<path style="&st15;" d="M516.375,185.912h-25.367c0,0-0.736-1.838,3.308-2.573s16.315-1.012,16.315-1.012l2.068-3.401l5.533,2.12
		L516.375,185.912z"/>
	<path style="&st14;" d="M552.497,105.51l-19.249,36.332l-23.078,40.315l7.507,0.277l20.574-28.358l27.242-34.819
		c3.512-2.793,4.587-7.663,2.581-11.675l0,0C565.073,101.58,556.963,100.5,552.497,105.51z"/>
	<linearGradient id="SVGID_13_" gradientUnits="userSpaceOnUse" x1="555.8604" y1="157.0659" x2="562.1819" y2="118.1484">
		<stop  offset="0" style="stop-color:#4F56A4;stop-opacity:0"/>
		<stop  offset="1" style="stop-color:#4D57A5;stop-opacity:0.5018"/>
	</linearGradient>
	<path style="&st24;" d="M563.477,152.708c-0.531-7.38-3.127-30.335-3.127-30.335l-7.931,13.347L563.477,152.708z"/>
	<g>
		<path style="&st7;" d="M353.675,213.147c-1.296,0-11.655,4.316-11.655,4.316l8.093,66.465c-1.831,0.865-4.379,1.373-6.103,1.866
			c-3.977,1.138-7.539,1.547-11.052,3.889c-0.284,0.202-0.37,1.211-0.423,1.558c-0.116,0.76,0.921,1.099,1.691,1.133
			c4.795,0.21,9.601,0.231,14.396,0.063c3.062-0.108,5.56-1.669,8.284-3.069c1.581-0.811,2.182-3.216,2.094-4.342
			C358.973,284.684,354.897,213.147,353.675,213.147z"/>
		<path style="&st10;" d="M344.772,289.941c4.62-0.424,10.84-2.488,14.44-5.415c0.322,3.065-0.58,6.013-6.417,7.509
			c-6.738,1.728-13.957,3.643-20.624,1.665c-0.715-0.21-1.537-0.66-1.52-1.403c0.01-0.337,0.2-0.639,0.4-0.907
			c1.186-1.584,4.698-4.405,6.782-3.719c1.083,0.36,1.862,1.612,3.094,1.991C342.155,290.037,343.506,290.057,344.772,289.941z"/>
	</g>
	<g>
		<path style="&st7;" d="M353.637,292.374"/>
		<path style="&st7;" d="M378.411,285.026c-0.027-0.342-4.103-71.879-5.326-71.879c-1.296,0-11.655,4.316-11.655,4.316l8.095,66.465
			c1.363,3.587,2.53,7.003,4.519,10.283c1.987,3.28,4.646,6.247,8.046,8.022c0.366,0.191,0.83,0.361,1.17,0.128
			c0.197-0.136,0.292-0.374,0.359-0.604c0.571-1.97-0.269-4.048-1.095-5.927C381.018,292.4,378.708,288.761,378.411,285.026z"/>
		<path style="&st10;" d="M371.646,293.806c2.064,3.83,4.604,7.732,8.569,9.523c0.677,0.306,1.426,0.546,2.152,0.396
			c0.978-0.204,1.704-1.103,1.95-2.071c0.245-0.968,0.091-1.994-0.162-2.96c-0.383-1.46-0.988-2.859-1.788-4.14
			c-0.189-0.303-0.432-0.628-0.785-0.685c-0.456-0.072-0.83,0.322-1.205,0.592c-1.025,0.739-2.489,0.604-3.591-0.017
			c-1.103-0.62-1.916-1.642-2.659-2.665c-1.505-2.067-2.84-5.867-4.929-7.061C368.549,287.824,370.192,291.112,371.646,293.806z"/>
	</g>
	<g>
		<circle style="&st10;" cx="258.04" cy="304.578" r="4.946"/>
		<circle style="&st10;" cx="317.574" cy="304.578" r="4.947"/>
		<circle style="&st10;" cx="286.547" cy="304.578" r="4.946"/>
		<path style="&st6;" d="M258.038,304.578v-2.564c0-5.726,4.644-10.367,10.37-10.367h19.456v-50.39"/>
		<path style="&st6;" d="M317.026,304.578v-2.564c0-5.726-4.643-10.367-10.368-10.367h-19.456v-50.39"/>
		<line style="&st6;" x1="286.548" y1="304.578" x2="286.548" y2="291.646"/>
		<rect x="281.28" y="266.183" style="&st10;" width="10.975" height="25.023"/>
		<rect x="283.036" y="241.695" style="&st10;" width="7.024" height="28.438"/>
	</g>
	<g>
		<circle style="&st10;" cx="447.776" cy="304.578" r="4.946"/>
		<circle style="&st10;" cx="507.312" cy="304.578" r="4.946"/>
		<circle style="&st10;" cx="476.284" cy="304.578" r="4.946"/>
		<path style="&st6;" d="M447.775,304.578v-2.564c0-5.726,4.643-10.367,10.368-10.367h19.457v-50.39"/>
		<path style="&st6;" d="M506.761,304.578v-2.564c0-5.726-4.642-10.367-10.367-10.367h-19.456v-50.39"/>
		<line style="&st6;" x1="476.283" y1="304.578" x2="476.283" y2="291.646"/>
		<rect x="471.015" y="266.183" style="&st10;" width="10.976" height="25.023"/>
		<rect x="472.771" y="241.695" style="&st10;" width="7.023" height="28.438"/>
	</g>
	<g>
		<rect x="178.414" y="191.292" style="&st11;" width="339.623" height="53.812"/>
		<rect x="178.9" y="191.716" style="&st10;" width="5.717" height="137.189"/>
		<rect x="516.162" y="191.716" style="&st10;" width="5.716" height="137.189"/>
		<linearGradient id="SVGID_14_" gradientUnits="userSpaceOnUse" x1="348.1279" y1="215.6528" x2="372.1605" y2="104.733">
			<stop  offset="0" style="stop-color:#686576;stop-opacity:0"/>
			<stop  offset="1" style="stop-color:#535064;stop-opacity:0.7"/>
		</linearGradient>
		<polygon style="&st25;" points="521.852,223.066 178,191.64 521.852,191.64 		"/>
		<rect x="165.181" y="186" style="&st36;" width="369.273" height="9.146"/>
	</g>
</g>
</svg>
